<svg width="249" height="74" viewBox="0 0 249 74" fill="none" xmlns="http://www.w3.org/2000/svg">
<g clip-path="url(#clip0_81_255)">
<path d="M247.414 65.1578C247.414 66.0856 247.231 67.0044 246.875 67.8615C246.519 68.7186 245.998 69.4973 245.341 70.153C244.683 70.8088 243.903 71.3287 243.044 71.6831C242.186 72.0375 241.266 72.2194 240.337 72.2184H8.72936C6.85217 72.2204 5.05106 71.4777 3.72213 70.1536C2.3932 68.8295 1.64527 67.0325 1.64282 65.1578V8.85137C1.64527 6.97579 2.3929 5.17784 3.72157 3.8523C5.05023 2.52676 6.85132 1.78198 8.72936 1.78149H240.335C241.264 1.78149 242.185 1.96438 243.044 2.31969C243.902 2.67501 244.683 3.1958 245.34 3.85232C245.997 4.50885 246.518 5.28824 246.874 6.14598C247.23 7.00373 247.412 7.92302 247.412 8.85137L247.414 65.1578Z" fill="white"/>
<path d="M240.337 73.8611H8.72942C6.41694 73.8606 4.19909 72.944 2.56254 71.3124C0.925987 69.6807 0.00440002 67.4673 0 65.1579L0 8.85331C0.00342098 6.54272 0.924399 4.32782 2.5609 2.6945C4.1974 1.06118 6.41579 0.142819 8.72942 0.140869L240.335 0.140869C242.648 0.143792 244.866 1.06247 246.502 2.69558C248.139 4.32869 249.06 6.54302 249.064 8.85331V65.1579C249.068 69.9584 245.145 73.8611 240.337 73.8611Z" fill="#A6A6A6"/>
<path d="M247.414 65.1578C247.414 66.0856 247.231 67.0044 246.875 67.8615C246.519 68.7186 245.998 69.4973 245.341 70.153C244.683 70.8088 243.903 71.3287 243.044 71.6831C242.186 72.0375 241.266 72.2194 240.337 72.2184H8.72936C6.85217 72.2204 5.05106 71.4777 3.72213 70.1536C2.3932 68.8295 1.64527 67.0325 1.64282 65.1578V8.85137C1.64527 6.97579 2.3929 5.17784 3.72157 3.8523C5.05023 2.52676 6.85132 1.78198 8.72936 1.78149H240.335C241.264 1.78149 242.185 1.96438 243.044 2.31969C243.902 2.67501 244.683 3.1958 245.34 3.85232C245.997 4.50885 246.518 5.28824 246.874 6.14598C247.23 7.00373 247.412 7.92302 247.412 8.85137L247.414 65.1578Z" fill="black"/>
<path d="M55.6143 36.613C55.5608 30.6714 60.4857 27.7807 60.7109 27.6461C57.9217 23.5849 53.5985 23.03 52.0793 22.9857C48.4484 22.6041 44.9264 25.1556 43.0767 25.1556C41.1902 25.1556 38.3419 23.0226 35.2721 23.0853C31.3218 23.1461 27.6263 25.4302 25.5994 28.9772C21.4166 36.2093 24.5362 46.8371 28.5437 52.6829C30.5484 55.5477 32.8909 58.7425 35.957 58.6301C38.9566 58.5084 40.0771 56.722 43.697 56.722C47.2836 56.722 48.3358 58.6301 51.4628 58.5582C54.6821 58.5084 56.7089 55.6823 58.6435 52.7935C60.9601 49.5139 61.8905 46.2804 61.9274 46.1145C61.8536 46.0887 55.6771 43.7326 55.6143 36.613ZM49.7073 19.1402C51.3207 17.1252 52.4245 14.3839 52.1181 11.6021C49.783 11.7053 46.8627 13.2151 45.1811 15.1858C43.6933 16.9224 42.3642 19.7688 42.7075 22.4456C45.3306 22.641 48.0238 21.1238 49.7073 19.1402Z" fill="white"/>
<path d="M240.337 0.140869H116.281L164.871 73.8611H240.337C242.65 73.8592 244.867 72.9413 246.504 71.3088C248.14 69.6763 249.062 67.4623 249.066 65.1524V8.85331C249.062 6.54287 248.141 4.32826 246.505 2.69504C244.868 1.06183 242.65 0.143306 240.337 0.140869Z" fill="url(#paint0_linear_81_255)"/>
<path d="M99.0621 58.2189H94.8699L92.5736 51.0126H84.5918L82.4044 58.2189H78.323L86.2328 33.6854H91.1172L99.0621 58.2189ZM91.8814 47.9893L89.8047 41.583C89.585 40.9286 89.1715 39.3874 88.5661 36.9614H88.4922C88.2486 38.0048 87.8591 39.546 87.3256 41.583L85.284 47.9893H91.8814ZM119.364 49.1562C119.364 52.1648 118.546 54.5429 116.909 56.2888C115.443 57.8428 113.621 58.619 111.448 58.619C109.102 58.619 107.415 57.7838 106.39 56.1099V65.392H102.455V46.343C102.455 44.4534 102.405 42.5159 102.309 40.5286H105.77L105.99 43.3325H106.064C107.376 41.2199 109.368 40.1635 112.041 40.1635C114.13 40.1635 115.875 40.9876 117.27 42.6375C118.664 44.2912 119.364 46.4628 119.364 49.1562ZM115.354 49.3C115.354 47.5782 114.967 46.1586 114.188 45.0396C113.337 43.8764 112.194 43.2938 110.762 43.2938C109.791 43.2938 108.908 43.6183 108.12 44.258C107.33 44.9032 106.813 45.7457 106.571 46.7891C106.463 47.1793 106.402 47.5809 106.389 47.9856V50.937C106.389 52.222 106.784 53.3078 107.574 54.1964C108.364 55.0812 109.39 55.5255 110.653 55.5255C112.135 55.5255 113.289 54.9522 114.114 53.8148C114.941 52.6736 115.354 51.1693 115.354 49.3ZM139.737 49.1562C139.737 52.1648 138.919 54.5429 137.282 56.2888C135.815 57.8428 133.994 58.619 131.82 58.619C129.474 58.619 127.787 57.7838 126.762 56.1099V65.392H122.827V46.343C122.827 44.4534 122.777 42.5159 122.681 40.5286H126.142L126.362 43.3325H126.435C127.746 41.2199 129.738 40.1635 132.413 40.1635C134.5 40.1635 136.245 40.9876 137.644 42.6375C139.036 44.2912 139.737 46.4628 139.737 49.1562ZM135.726 49.3C135.726 47.5782 135.336 46.1586 134.557 45.0396C133.707 43.8764 132.568 43.2938 131.135 43.2938C130.164 43.2938 129.282 43.6183 128.49 44.258C127.7 44.9032 127.185 45.7457 126.943 46.7891C126.823 47.2758 126.758 47.6722 126.758 47.9856V50.937C126.758 52.222 127.155 53.3078 127.942 54.1964C128.732 55.0794 129.758 55.5255 131.024 55.5255C132.509 55.5255 133.662 54.9522 134.486 53.8148C135.312 52.6736 135.726 51.1693 135.726 49.3ZM162.516 51.3371C162.516 53.4258 161.785 55.1236 160.332 56.4344C158.734 57.865 156.502 58.5821 153.641 58.5821C150.997 58.5821 148.878 58.0733 147.28 57.0538L148.19 53.7779C149.916 54.7992 151.811 55.308 153.875 55.308C155.359 55.308 156.513 54.9725 157.336 54.307C158.161 53.6396 158.579 52.7474 158.579 51.6339C158.579 50.6365 158.233 49.8014 157.556 49.1212C156.875 48.4428 155.749 47.8104 154.167 47.2297C149.866 45.6277 147.713 43.2846 147.713 40.2023C147.713 38.1891 148.474 36.541 149.991 35.2524C151.509 33.9656 153.521 33.3223 156.024 33.3223C158.259 33.3223 160.122 33.7112 161.6 34.4874L160.613 37.6914C159.221 36.9392 157.65 36.5632 155.893 36.5632C154.505 36.5632 153.416 36.9042 152.637 37.5826C151.981 38.1891 151.649 38.9284 151.649 39.8059C151.649 40.7737 152.027 41.5775 152.781 42.208C153.434 42.7887 154.626 43.421 156.351 44.0994C158.466 44.9511 160.02 45.943 161.015 47.0822C162.018 48.2215 162.516 49.6429 162.516 51.3371ZM175.561 43.4782H171.223V52.0671C171.223 54.2517 171.987 55.3412 173.52 55.3412C174.223 55.3412 174.806 55.2822 175.268 55.1587L175.377 58.1433C174.601 58.4328 173.581 58.5784 172.316 58.5784C170.762 58.5784 169.547 58.1046 168.67 57.157C167.797 56.2095 167.358 54.6222 167.358 52.3879V43.4708H164.774V40.5212H167.358V37.2821L171.223 36.117V40.5212H175.561V43.4782ZM195.095 49.2281C195.095 51.9473 194.316 54.1798 192.762 55.9256C191.135 57.723 188.972 58.619 186.275 58.619C183.672 58.619 181.603 57.758 180.06 56.038C178.517 54.3143 177.745 52.1427 177.745 49.5231C177.745 46.7818 178.542 44.5364 180.132 42.7905C181.725 41.0429 183.87 40.1691 186.567 40.1691C189.166 40.1691 191.253 41.0318 192.834 42.7537C194.344 44.4239 195.095 46.5808 195.095 49.2281ZM191.015 49.3184C191.015 47.698 190.665 46.308 189.961 45.1447C189.136 43.74 187.955 43.0376 186.425 43.0376C184.848 43.0376 183.639 43.74 182.816 45.1447C182.111 46.308 181.76 47.7219 181.76 49.3922C181.76 51.0145 182.111 52.4082 182.816 53.5677C183.667 54.9725 184.854 55.6749 186.391 55.6749C187.896 55.6749 189.075 54.9577 189.928 53.5327C190.652 52.3418 191.015 50.9426 191.015 49.3184ZM207.893 43.9851C207.483 43.9113 207.068 43.8749 206.652 43.8764C205.268 43.8764 204.197 44.3962 203.444 45.4434C202.791 46.3651 202.462 47.5302 202.462 48.9368V58.2189H198.526V46.0997C198.53 44.2426 198.492 42.3857 198.412 40.5304H201.84L201.984 43.9151H202.093C202.51 42.7518 203.163 41.8135 204.061 41.1111C204.882 40.4974 205.879 40.165 206.905 40.1635C207.269 40.1635 207.597 40.1894 207.889 40.2354L207.893 43.9851ZM225.494 48.5368C225.504 49.1343 225.455 49.7313 225.35 50.3195H213.543C213.587 52.0671 214.16 53.4055 215.256 54.3273C216.251 55.1495 217.538 55.5624 219.118 55.5624C220.866 55.5624 222.461 55.2859 223.895 54.7273L224.512 57.4539C222.836 58.1839 220.857 58.5471 218.573 58.5471C215.827 58.5471 213.67 57.7396 212.101 56.1284C210.536 54.5153 209.752 52.3473 209.752 49.6318C209.752 46.9661 210.481 44.7447 211.941 42.9731C213.469 41.0816 215.535 40.1359 218.134 40.1359C220.687 40.1359 222.62 41.0816 223.932 42.9731C224.971 44.4718 225.494 46.3301 225.494 48.5368ZM221.741 47.5173C221.769 46.3504 221.51 45.3457 220.977 44.4958C220.296 43.4007 219.247 42.8551 217.842 42.8551C216.556 42.8551 215.507 43.3878 214.71 44.4571C214.054 45.3069 213.665 46.3282 213.545 47.5136L221.741 47.5173Z" fill="white"/>
<path d="M83.4565 25.0117C82.3619 25.0117 81.4149 24.9583 80.6267 24.8679V13.0068C81.7291 12.8367 82.8431 12.7529 83.9586 12.7561C88.4719 12.7561 90.5504 14.9738 90.5504 18.5889C90.5504 22.759 88.0953 25.0117 83.4565 25.0117ZM84.1174 14.277C83.5082 14.277 82.9895 14.3138 82.5594 14.4023V23.4189C82.792 23.4558 83.2387 23.4724 83.8663 23.4724C86.8235 23.4724 88.507 21.7911 88.507 18.6424C88.507 15.8347 86.9841 14.277 84.1174 14.277ZM97.0278 25.1021C94.4841 25.1021 92.8357 23.2051 92.8357 20.6297C92.8357 17.9455 94.5192 16.032 97.1718 16.032C99.6786 16.032 101.364 17.8386 101.364 20.4877C101.364 23.2051 99.6269 25.1021 97.0278 25.1021ZM97.1017 17.4441C95.7043 17.4441 94.809 18.7493 94.809 20.5744C94.809 22.3644 95.7227 23.6697 97.0832 23.6697C98.4436 23.6697 99.3574 22.2741 99.3574 20.5375C99.3574 18.7678 98.4621 17.4441 97.1017 17.4441ZM115.869 16.2108L113.146 24.9048H111.373L110.245 21.1293C109.964 20.2058 109.731 19.2687 109.545 18.3216H109.508C109.366 19.2692 109.097 20.2186 108.81 21.1293L107.611 24.9048H105.818L103.256 16.2108H105.244L106.23 20.344C106.462 21.3284 106.658 22.2575 106.82 23.135H106.857C107 22.4032 107.232 21.4888 107.574 20.3624L108.81 16.2126H110.387L111.57 20.2739C111.856 21.2583 112.089 22.2243 112.27 23.1369H112.321C112.447 22.2428 112.644 21.2934 112.912 20.2739L113.97 16.2126L115.869 16.2108ZM125.893 24.9048H123.958V19.9126C123.958 18.3751 123.367 17.6045 122.203 17.6045C121.056 17.6045 120.268 18.5889 120.268 19.7338V24.9048H118.334V18.6959C118.334 17.9271 118.315 17.1031 118.262 16.209H119.964L120.054 17.551H120.108C120.628 16.6219 121.684 16.032 122.867 16.032C124.695 16.032 125.895 17.4275 125.895 19.6987L125.893 24.9048ZM131.227 24.9048H129.291V12.2214H131.227V24.9048ZM138.281 25.1021C135.739 25.1021 134.089 23.2051 134.089 20.6297C134.089 17.9455 135.772 16.032 138.423 16.032C140.931 16.032 142.615 17.8386 142.615 20.4877C142.617 23.2051 140.878 25.1021 138.281 25.1021ZM138.353 17.4441C136.955 17.4441 136.06 18.7493 136.06 20.5744C136.06 22.3644 136.976 23.6697 138.332 23.6697C139.695 23.6697 140.607 22.2741 140.607 20.5375C140.608 18.7678 139.715 17.4441 138.353 17.4441ZM150.242 24.9048L150.102 23.9038H150.05C149.46 24.7094 148.598 25.1021 147.505 25.1021C145.945 25.1021 144.837 24.0107 144.837 22.5433C144.837 20.3974 146.7 19.2876 149.925 19.2876V19.1272C149.925 17.9824 149.318 17.4091 148.118 17.4091C147.259 17.4091 146.506 17.6248 145.844 18.0543L145.45 16.7841C146.255 16.2827 147.259 16.032 148.439 16.032C150.713 16.032 151.861 17.2303 151.861 19.6287V22.8309C151.861 23.7084 151.9 24.3886 151.987 24.9067L150.242 24.9048ZM149.977 20.5744C147.828 20.5744 146.75 21.0943 146.75 22.3276C146.75 23.2401 147.305 23.6862 148.077 23.6862C149.061 23.6862 149.977 22.9359 149.977 21.9165V20.5744ZM161.255 24.9048L161.165 23.5093H161.111C160.556 24.5638 159.622 25.1021 158.316 25.1021C156.218 25.1021 154.663 23.2585 154.663 20.6647C154.663 17.9455 156.275 16.0301 158.475 16.0301C159.64 16.0301 160.465 16.4228 160.93 17.2118H160.969V12.2214H162.905V22.5617C162.905 23.4023 162.926 24.1895 162.977 24.9048H161.255ZM160.969 19.7891C160.969 18.5723 160.162 17.5344 158.931 17.5344C157.497 17.5344 156.62 18.8046 156.62 20.5928C156.62 22.346 157.53 23.5461 158.892 23.5461C160.109 23.5461 160.969 22.4898 160.969 21.2381V19.7891ZM175.183 25.1021C172.641 25.1021 170.992 23.2051 170.992 20.6297C170.992 17.9455 172.676 16.032 175.327 16.032C177.835 16.032 179.519 17.8386 179.519 20.4877C179.521 23.2051 177.784 25.1021 175.183 25.1021ZM175.255 17.4441C173.859 17.4441 172.964 18.7493 172.964 20.5744C172.964 22.3644 173.878 23.6697 175.236 23.6697C176.599 23.6697 177.51 22.2741 177.51 20.5375C177.514 18.7678 176.619 17.4441 175.255 17.4441ZM189.923 24.9048H187.986V19.9126C187.986 18.3751 187.395 17.6045 186.231 17.6045C185.084 17.6045 184.298 18.5889 184.298 19.7338V24.9048H182.362V18.6959C182.362 17.9271 182.343 17.1031 182.29 16.209H183.992L184.082 17.551H184.136C184.654 16.6219 185.712 16.0301 186.893 16.0301C188.721 16.0301 189.923 17.4257 189.923 19.6969V24.9048ZM202.938 17.6598H200.81V21.8814C200.81 22.9562 201.183 23.4927 201.936 23.4927C202.277 23.4927 202.563 23.4558 202.794 23.4023L202.848 24.8698C202.473 25.0136 201.971 25.0855 201.347 25.0855C199.822 25.0855 198.91 24.2448 198.91 22.0437V17.6598H197.64V16.2108H198.91V14.618L200.81 14.0447V16.209H202.938V17.6598ZM213.179 24.9048H211.247V19.9494C211.247 18.3935 210.658 17.6063 209.491 17.6063C208.489 17.6063 207.555 18.2866 207.555 19.6637V24.9048H205.622V12.2214H207.555V17.4441H207.594C208.203 16.4965 209.085 16.0301 210.211 16.0301C212.053 16.0301 213.179 17.4607 213.179 19.7338V24.9048ZM223.672 21.0224H217.866C217.903 22.6686 218.994 23.5978 220.609 23.5978C221.468 23.5978 222.258 23.454 222.955 23.1867L223.256 24.5287C222.433 24.8864 221.464 25.0652 220.336 25.0652C217.613 25.0652 216.002 23.347 216.002 20.6832C216.002 18.0174 217.652 16.0135 220.118 16.0135C222.343 16.0135 223.738 17.6598 223.738 20.1467C223.751 20.4402 223.728 20.7341 223.672 21.0224ZM221.898 19.6453C221.898 18.3032 221.22 17.3556 219.984 17.3556C218.872 17.3556 217.994 18.3216 217.868 19.6453H221.898Z" fill="white"/>
</g>
<defs>
<linearGradient id="paint0_linear_81_255" x1="182.671" y1="74.0568" x2="182.671" y2="-191.814" gradientUnits="userSpaceOnUse">
<stop stop-color="#1A1A1A" stop-opacity="0.1"/>
<stop offset="0.123" stop-color="#212121" stop-opacity="0.151"/>
<stop offset="0.308" stop-color="#353535" stop-opacity="0.227"/>
<stop offset="0.532" stop-color="#575757" stop-opacity="0.318"/>
<stop offset="0.783" stop-color="#858585" stop-opacity="0.421"/>
<stop offset="1" stop-color="#B3B3B3" stop-opacity="0.51"/>
</linearGradient>
<clipPath id="clip0_81_255">
<rect width="249" height="74" fill="white"/>
</clipPath>
</defs>
</svg>
