<svg width="27" height="30" viewBox="0 0 27 30" fill="none" xmlns="http://www.w3.org/2000/svg">
<path fill-rule="evenodd" clip-rule="evenodd" d="M10.5225 7.86266V10.8877H16.5731V7.86266C16.5731 6.19453 15.2156 4.83703 13.5475 4.83703C11.8794 4.83703 10.5225 6.19453 10.5225 7.86266ZM7.64437 10.2408L7.91938 8.48391C7.93435 8.38573 7.91011 8.2856 7.85188 8.20516C7.82285 8.16524 7.7862 8.13149 7.74404 8.10585C7.70187 8.0802 7.65504 8.06319 7.60625 8.05578L5.84937 7.78078C5.645 7.74828 5.45312 7.88891 5.42125 8.09328C5.41351 8.14197 5.41546 8.1917 5.42699 8.23963C5.43852 8.28755 5.45941 8.33273 5.48844 8.37257C5.51748 8.41241 5.55409 8.44611 5.59619 8.47176C5.63829 8.49741 5.68503 8.5145 5.73375 8.52203L6.60188 8.65766C5.12875 9.83703 3.98125 11.3645 3.2625 13.1127C3.23905 13.1696 3.23 13.2315 3.23615 13.2928C3.2423 13.354 3.26345 13.4129 3.29775 13.464C3.33204 13.5152 3.37842 13.5571 3.43277 13.5861C3.48712 13.6151 3.54778 13.6302 3.60938 13.6302C3.75688 13.6302 3.89688 13.5427 3.95625 13.3977C4.62125 11.7808 5.67937 10.3658 7.03687 9.26953L6.90312 10.1252C6.87125 10.3295 7.01125 10.5214 7.21625 10.5539C7.42063 10.5852 7.6125 10.4458 7.64437 10.2408ZM21.6238 12.8677L23.2981 13.467C23.3394 13.4814 23.3819 13.4889 23.4244 13.4889C23.4794 13.4889 23.5344 13.4764 23.585 13.4527C23.675 13.4102 23.7444 13.3339 23.7775 13.2402L24.3769 11.5658C24.3935 11.5194 24.4008 11.4702 24.3984 11.421C24.396 11.3718 24.3839 11.3236 24.3628 11.279C24.3418 11.2345 24.3121 11.1946 24.2756 11.1615C24.2391 11.1285 24.1964 11.1029 24.15 11.0864C23.955 11.0164 23.7406 11.1183 23.6706 11.3127L23.375 12.1402C22.4925 10.472 21.2075 9.05953 19.6244 8.02578C19.5832 7.99873 19.537 7.98009 19.4886 7.97091C19.4401 7.96174 19.3904 7.96222 19.3421 7.97232C19.2939 7.98243 19.2481 8.00196 19.2074 8.02979C19.1667 8.05763 19.1319 8.09322 19.105 8.13453C19.0781 8.17576 19.0596 8.2219 19.0505 8.2703C19.0414 8.31869 19.042 8.3684 19.0521 8.41658C19.0623 8.46476 19.0819 8.51046 19.1097 8.55108C19.1375 8.59169 19.1731 8.62642 19.2144 8.65328C20.6781 9.60953 21.87 10.9139 22.6919 12.4533L21.8762 12.1614C21.7826 12.1281 21.6795 12.1333 21.5897 12.1758C21.4998 12.2183 21.4305 12.2947 21.3969 12.3883C21.3275 12.5833 21.4288 12.7983 21.6238 12.8677ZM17.5444 26.9045C15.9346 27.5764 14.1812 27.8309 12.4469 27.6445L13.1462 27.1345C13.3137 27.0127 13.3506 26.7777 13.2281 26.6108C13.1062 26.4433 12.8713 26.4064 12.7044 26.5289L11.2675 27.577C11.2277 27.6061 11.1941 27.6426 11.1684 27.6847C11.1428 27.7267 11.1257 27.7734 11.1181 27.822C11.1025 27.9202 11.1269 28.0202 11.1856 28.1008L12.2338 29.5377C12.3075 29.6383 12.4212 29.6914 12.5369 29.6914C12.6137 29.6914 12.6912 29.6683 12.7581 29.6195C12.8383 29.5607 12.892 29.4725 12.9073 29.3743C12.9227 29.276 12.8985 29.1756 12.84 29.0952L12.3219 28.3858C14.1975 28.5933 16.0887 28.3245 17.8331 27.5964C18.0244 27.517 18.1144 27.297 18.035 27.1058C17.9966 27.0141 17.9233 26.9414 17.8313 26.9037C17.7393 26.8659 17.6361 26.8662 17.5444 26.9045ZM13.6575 20.7295L13.6531 20.7808L13.395 20.6208C13.3594 20.5989 13.3219 20.5802 13.2831 20.5639L13.1181 20.4958L13.1781 20.3277C13.2156 20.2227 13.2319 20.1102 13.225 19.9989C13.2186 19.892 13.191 19.7874 13.1438 19.6913C13.0966 19.5951 13.0307 19.5093 12.95 19.4389C12.8562 19.3565 12.7445 19.297 12.6237 19.2652L12.4712 19.2239L12.4856 19.067C12.4894 19.0233 12.4919 18.9789 12.4888 18.9352C12.4823 18.8282 12.4547 18.7237 12.4075 18.6275C12.3603 18.5314 12.2944 18.4456 12.2137 18.3752C12.0697 18.2486 11.8855 18.1771 11.6938 18.1733L11.5425 18.1702L11.5138 18.022C11.4794 17.8445 11.3894 17.6864 11.2537 17.567C10.9338 17.2858 10.4475 17.3002 10.1444 17.5989L10.0231 17.7183L9.8925 17.6095C9.7225 17.4683 9.51562 17.3583 9.30937 17.2808L9.09875 17.2014L10.7156 14.5233L10.8725 14.6077C11.2006 14.7839 11.5475 14.8508 11.9169 14.8508C12.0387 14.8508 12.1594 14.8433 12.2806 14.8333L12.795 14.7895L12.4281 15.1533C12.2288 15.3508 12.1031 15.5777 12.065 15.8564C12.0331 16.0877 12.065 16.3133 12.0994 16.542C12.1569 16.922 12.2 17.2445 11.9812 17.5839C11.95 17.632 11.9425 17.6927 11.9619 17.747C11.9812 17.802 12.0244 17.8439 12.0794 17.8627C12.4481 17.987 12.8319 17.8727 13.1325 17.6414C13.4681 17.3833 13.7369 16.9439 13.7081 16.5089C13.6975 16.3464 13.7869 16.1002 13.9319 16.0139L13.9362 16.0114C14.0275 15.9602 14.125 15.9895 14.2087 16.0364L14.2256 16.0458L17.5588 18.9752C17.6021 19.0133 17.6374 19.0597 17.6627 19.1117C17.6881 19.1636 17.7028 19.22 17.7062 19.2777C17.7137 19.3939 17.675 19.5077 17.5981 19.5958C17.44 19.7758 17.1569 19.7945 16.9769 19.6364L15.2181 18.0902C15.1807 18.0576 15.132 18.041 15.0825 18.0442C15.033 18.0474 14.9867 18.0699 14.9538 18.107C14.8856 18.1845 14.8925 18.3039 14.97 18.372L16.5088 19.7239C16.552 19.7621 16.5872 19.8084 16.6125 19.8602C16.6378 19.912 16.6527 19.9682 16.6562 20.0258C16.6637 20.1427 16.6263 20.257 16.5487 20.3452C16.39 20.5252 16.1081 20.5433 15.9281 20.3852L14.3406 18.9902C14.2631 18.922 14.1437 18.9295 14.0756 19.007C14.0075 19.0845 14.0156 19.2039 14.0931 19.272L15.3988 20.4195C15.4421 20.4576 15.4774 20.5039 15.5027 20.5557C15.528 20.6075 15.5428 20.6638 15.5462 20.7214C15.5537 20.8383 15.5162 20.9527 15.4387 21.0402C15.3612 21.1283 15.2537 21.1795 15.1369 21.1877C15.02 21.1958 14.9056 21.1577 14.8175 21.0802L13.9888 20.3514C13.9113 20.2833 13.7919 20.2914 13.7238 20.3689C13.6969 20.3995 13.6812 20.437 13.6775 20.4777L13.6694 20.5714L14.2738 21.1014C14.4538 21.2595 14.4719 21.542 14.3144 21.722C14.1987 21.8539 14.0169 21.8964 13.8512 21.8452L13.6619 21.7864L13.7312 21.6002C13.7712 21.4927 13.7881 21.3764 13.7812 21.2614C13.7781 21.2077 13.7694 21.1545 13.7556 21.1027L13.6575 20.7295ZM20.1562 17.4402L19.4044 17.7583L17.7519 13.8502L18.5044 13.532L20.1562 17.4402ZM8.4275 17.5883L7.72812 17.1664L9.92125 13.5339L10.6206 13.9558L8.4275 17.5883ZM11.0463 18.4695C11.2044 18.2895 11.1863 18.0077 11.0063 17.8489C10.9263 17.7783 10.8225 17.7408 10.7163 17.7408C10.59 17.7408 10.4688 17.7939 10.385 17.8889L9.71813 18.647C9.56 18.827 9.57875 19.1095 9.75813 19.2677C9.84625 19.3452 9.96063 19.3833 10.0775 19.3758C10.1944 19.3683 10.3031 19.3152 10.3787 19.2283L11.0463 18.4695ZM11.4725 18.597L11.4431 18.5802L11.3425 18.6977C11.3362 18.7052 11.3306 18.7127 11.3263 18.7183L10.6788 19.4552C10.5206 19.6352 10.5387 19.917 10.7188 20.0758C10.8069 20.1533 10.9213 20.1908 11.0381 20.1833C11.0957 20.1797 11.1519 20.1649 11.2037 20.1396C11.2555 20.1143 11.3018 20.079 11.34 20.0358L11.8 19.5127L12.0081 19.2764C12.084 19.1887 12.1221 19.0746 12.1144 18.9589C12.1108 18.9014 12.096 18.8451 12.0707 18.7933C12.0454 18.7415 12.0101 18.6952 11.9669 18.657C11.8787 18.5795 11.7656 18.542 11.6488 18.5489C11.5863 18.5527 11.5262 18.5695 11.4725 18.597ZM12.405 20.7252L12.7419 20.3414C12.7798 20.298 12.8088 20.2476 12.8273 20.193C12.8457 20.1385 12.8532 20.0808 12.8494 20.0233C12.8419 19.9064 12.79 19.7983 12.7019 19.7208C12.5219 19.562 12.2394 19.5802 12.0806 19.7608L11.6213 20.2839C11.4631 20.4639 11.4806 20.7464 11.6606 20.9045C11.8394 21.0614 12.1181 21.0452 12.2769 20.8695L12.2831 20.8633L12.405 20.7252ZM13.3006 21.6064C13.3388 21.5629 13.3681 21.5123 13.3866 21.4575C13.4052 21.4027 13.4127 21.3448 13.4087 21.287C13.4014 21.171 13.3484 21.0627 13.2612 20.9858C13.1812 20.9152 13.0775 20.8777 12.9712 20.8777C12.8444 20.8777 12.7225 20.9308 12.64 21.0264L12.5694 21.1064C12.4919 21.1939 12.4538 21.3083 12.4613 21.4252C12.4688 21.542 12.5206 21.6502 12.6088 21.7277C12.7888 21.8858 13.0719 21.867 13.23 21.687L13.3006 21.6064ZM14.4662 15.7583L17.6344 18.542L17.7494 18.4802C17.9875 18.352 18.1044 18.2377 18.2444 18.0139C18.3775 17.8002 18.4963 17.6658 18.7225 17.5433L18.8725 17.462L17.59 14.4283L17.4287 14.4764C16.7162 14.6902 16.0725 14.562 15.3706 14.3958C14.9712 14.3014 14.4294 14.1527 14.0394 14.3364L14.0275 14.342L14.0163 14.3495C13.7163 14.547 13.4537 14.7664 13.1844 15.0027C13.0719 15.1014 12.9587 15.202 12.84 15.2927C12.6462 15.4395 12.4931 15.612 12.4431 15.8558C12.4012 16.0595 12.4394 16.2827 12.47 16.4858C12.5081 16.737 12.5419 16.9808 12.505 17.2352L12.4494 17.6214L12.7856 17.4239C12.8263 17.4002 12.8663 17.3733 12.9038 17.3445C13.1369 17.1652 13.3544 16.8395 13.3337 16.5345C13.3131 16.2339 13.4731 15.8495 13.7419 15.6914C13.9725 15.5552 14.2219 15.5989 14.4406 15.7395C14.45 15.7452 14.4581 15.752 14.4662 15.7583ZM23.9519 19.9208C24.9169 19.9208 25.7019 19.1358 25.7019 18.1708C25.7019 17.2058 24.9169 16.4202 23.9519 16.4202C22.9869 16.4202 22.2019 17.2058 22.2019 18.1708C22.2019 19.1358 22.9869 19.9208 23.9519 19.9208ZM20.9263 23.9664V26.992H26.9769V23.9664C26.9769 22.2983 25.62 20.9414 23.9519 20.9414C22.2838 20.9414 20.9263 22.2983 20.9263 23.9664ZM6.81625 23.9664C6.81625 22.2983 5.45875 20.9414 3.79063 20.9414C2.1225 20.9414 0.765625 22.2983 0.765625 23.9664V26.992H6.81625V23.9664ZM5.54063 18.1708C5.54063 17.2058 4.75563 16.4202 3.79063 16.4202C2.82563 16.4202 2.04063 17.2058 2.04063 18.1708C2.04063 19.1358 2.82563 19.9208 3.79063 19.9208C4.75563 19.9208 5.54063 19.1358 5.54063 18.1708ZM11.7975 2.06641C11.7975 3.03141 12.5825 3.81703 13.5475 3.81703C14.5125 3.81703 15.2981 3.03141 15.2981 2.06641C15.2981 1.10141 14.5125 0.316406 13.5475 0.316406C12.5825 0.316406 11.7975 1.10141 11.7975 2.06641Z" fill="url(#paint0_linear_31_3404)"/>
<defs>
<linearGradient id="paint0_linear_31_3404" x1="0.765625" y1="14.7462" x2="26.9769" y2="14.7462" gradientUnits="userSpaceOnUse">
<stop stop-color="#B72204"/>
<stop offset="1" stop-color="#FC6400"/>
</linearGradient>
</defs>
</svg>
