<svg width="42" height="42" viewBox="0 0 42 42" fill="none" xmlns="http://www.w3.org/2000/svg">
<path d="M31.9523 7.17134C31.9523 6.18598 31.5678 5.25837 30.8708 4.56143L27.3909 1.0815C26.7037 0.39416 25.7281 0 24.7571 0H24.5457V7.38281H31.9524L31.9523 7.17134Z" fill="url(#paint0_linear_38_3923)"/>
<path d="M22.4714 25.3917C22.7069 24.6767 23.1179 24.011 23.6538 23.4715L31.9851 15.1738V9.84375H23.339C22.6588 9.84375 22.1484 9.2934 22.1484 8.61328V0H3.69141C1.65588 0 0 1.65588 0 3.69141V38.3086C0 40.3441 1.65588 42 3.69141 42H28.2608C30.2964 42 31.9851 40.3441 31.9851 38.3086V29.1251L30.6328 30.4445C30.085 30.9876 29.4433 31.3829 28.7199 31.6245L24.8074 32.9307L24.2114 32.9632C23.226 32.9632 22.2936 32.4837 21.7144 31.681C21.14 30.882 20.9838 29.8462 21.2962 28.9101L22.4714 25.3917ZM6.15234 22.1484H18.4171C19.0972 22.1484 19.6476 22.6988 19.6476 23.3789C19.6476 24.059 19.0972 24.6094 18.4171 24.6094H6.15234C5.47222 24.6094 4.92188 24.059 4.92188 23.3789C4.92188 22.6988 5.47222 22.1484 6.15234 22.1484ZM4.92188 18.457C4.92188 17.7769 5.47222 17.2266 6.15234 17.2266H18.4171C19.0972 17.2266 19.6476 17.7769 19.6476 18.457C19.6476 19.1372 19.0972 19.6875 18.4171 19.6875H6.15234C5.47222 19.6875 4.92188 19.1372 4.92188 18.457ZM4.92188 28.3008C4.92188 27.6207 5.47222 27.0703 6.15234 27.0703H18.4171C19.0972 27.0703 19.6476 27.6207 19.6476 28.3008C19.6476 28.9809 19.0972 29.5312 18.4171 29.5312H6.15234C5.47222 29.5312 4.92188 28.9809 4.92188 28.3008ZM23.339 34.4531C24.0191 34.4531 24.5694 35.0035 24.5694 35.6836C24.5694 36.3637 24.0192 36.9141 23.339 36.9141H15.9561C15.276 36.9141 14.7257 36.3637 14.7257 35.6836C14.7257 35.0035 15.276 34.4531 15.9561 34.4531H23.339ZM6.15234 14.7656C5.47222 14.7656 4.92188 14.2153 4.92188 13.5352C4.92188 12.855 5.47222 12.3047 6.15234 12.3047H23.339C24.0191 12.3047 24.5694 12.855 24.5694 13.5352C24.5694 14.2153 24.0191 14.7656 23.339 14.7656H6.15234Z" fill="url(#paint1_linear_38_3923)"/>
<path d="M24.7006 26.4806L23.6301 29.6922C23.4696 30.1733 23.9274 30.631 24.4086 30.4703L27.6183 29.3983L24.7006 26.4806ZM34.2571 16.3497L26.1533 24.4535L29.6482 27.9484C31.4798 26.1165 35.0437 22.5521 37.7516 19.8442L34.2571 16.3497ZM41.277 12.8204C40.8444 12.3854 40.2075 12.1367 39.5322 12.1367C38.8568 12.1367 38.22 12.3854 37.785 12.8217L35.9969 14.6097L39.4913 18.1041L41.2795 16.3159C42.2407 15.3532 42.2406 13.7853 41.277 12.8204Z" fill="url(#paint2_linear_38_3923)"/>
<path d="M41.2793 16.3161L41.2795 16.316L41.2865 16.3089C41.2842 16.3114 41.2817 16.3138 41.2793 16.3161ZM41.2974 16.298C41.3054 16.2901 41.3055 16.2899 41.2974 16.298V16.298Z" fill="url(#paint3_linear_38_3923)"/>
<defs>
<linearGradient id="paint0_linear_38_3923" x1="24.5457" y1="3.62664" x2="31.9524" y2="3.62664" gradientUnits="userSpaceOnUse">
<stop stop-color="#B72204"/>
<stop offset="1" stop-color="#FC6400"/>
</linearGradient>
<linearGradient id="paint1_linear_38_3923" x1="2.44982e-07" y1="20.6316" x2="31.9851" y2="20.6316" gradientUnits="userSpaceOnUse">
<stop stop-color="#B72204"/>
<stop offset="1" stop-color="#FC6400"/>
</linearGradient>
<linearGradient id="paint2_linear_38_3923" x1="23.5974" y1="21.1588" x2="42" y2="21.1588" gradientUnits="userSpaceOnUse">
<stop stop-color="#B72204"/>
<stop offset="1" stop-color="#FC6400"/>
</linearGradient>
<linearGradient id="paint3_linear_38_3923" x1="41.2793" y1="16.3039" x2="41.3035" y2="16.3039" gradientUnits="userSpaceOnUse">
<stop stop-color="#B72204"/>
<stop offset="1" stop-color="#FC6400"/>
</linearGradient>
</defs>
</svg>
