<svg width="28" height="34" viewBox="0 0 28 34" fill="none" xmlns="http://www.w3.org/2000/svg">
<path d="M21.8027 10.8777C21.0942 10.1041 19.9926 9.06003 19.524 11.4176C19.3646 12.2192 18.9923 12.8371 18.6732 13.3346C18.3293 11.594 17.2945 9.79229 16.3196 8.57752C15.9547 8.12304 14.6602 6.31632 14.4115 3.29378C14.3744 2.84268 13.8386 2.63084 13.5034 2.93512C10.3005 5.84265 8.54247 9.8415 8.47719 14.3434C8.47719 14.3434 7.14349 13.2192 6.41893 11.1278C6.22383 10.5646 5.46879 10.4572 5.1412 10.9551C5.08013 11.048 5.02217 11.1428 4.96742 11.2395C2.49624 15.609 1.30751 20.9152 2.40646 25.8518C4.24392 34.1192 16.3985 36.4306 22.8332 31.2343C29.1289 26.1505 27.1276 16.6884 21.8027 10.8777Z" fill="#ED694A"/>
<path d="M4.117 26.3711C3.03079 21.3816 4.18055 16.0238 6.59369 11.5859C6.53096 11.435 6.47274 11.2824 6.4191 11.1281C6.224 10.5649 5.46896 10.4574 5.14138 10.9554C5.08033 11.0482 5.0224 11.1431 4.96766 11.2397C2.49649 15.6093 1.30775 20.9155 2.40671 25.8521C3.24482 29.6231 6.22965 32.1541 9.83889 33.2995C7.02327 31.9356 4.81832 29.5975 4.117 26.3711ZM10.1962 14.2607C10.3296 10.1749 11.8074 6.51129 14.4523 3.69686C14.4367 3.56417 14.4232 3.43123 14.412 3.29809C14.374 2.84314 13.8578 2.61497 13.5241 2.91659C10.4306 5.71349 8.54503 9.6719 8.47737 14.3434L9.05636 14.7931C9.34151 15.0145 9.72786 15.0049 10.0002 14.802C10.1627 14.6643 10.186 14.4565 10.1962 14.2607Z" fill="#D8553A"/>
<path d="M19.86 16.9217C19.3367 16.3503 18.523 15.5791 18.1769 17.3204C18.0592 17.9124 17.7841 18.3689 17.5486 18.7364C17.2946 17.4507 16.5302 16.1199 15.8101 15.2227C15.5406 14.887 14.5845 13.5526 14.4008 11.32C14.3733 10.9867 13.9776 10.8303 13.7301 11.0551C11.3643 13.2026 10.0658 16.1563 10.0176 19.4814C10.0176 19.4814 9.03249 18.6511 8.49739 17.1063C8.35329 16.6904 7.79554 16.611 7.55362 16.9788C7.50852 17.0474 7.46571 17.1175 7.42526 17.1889C5.59995 20.4163 4.72193 24.3355 5.53361 27.9819C6.89082 34.0883 15.8684 35.7956 20.6212 31.9575C25.2713 28.2025 23.7931 21.2136 19.86 16.9217Z" fill="#F4A32C"/>
<path d="M7.22613 28.4609C6.50748 24.8965 7.25183 21.0718 8.82997 17.887C8.7011 17.6348 8.58987 17.374 8.49708 17.1065C8.35298 16.6905 7.79523 16.6111 7.55331 16.9789C7.50819 17.0475 7.46538 17.1175 7.42495 17.189C5.59971 20.4164 4.72175 24.3356 5.5333 27.9819C6.16456 30.822 8.44435 32.7098 11.1806 33.5313C9.23651 32.5564 7.70585 30.8435 7.22613 28.4609Z" fill="#E89528"/>
<path d="M18.0863 22.4391C17.7321 22.0524 17.1812 21.5302 16.9469 22.7091C16.8673 23.1099 16.681 23.4188 16.5215 23.6676C16.3495 22.7972 15.8322 21.8964 15.3447 21.289C15.1623 21.0618 14.5151 20.1585 14.3906 18.6471C14.372 18.4216 14.1042 18.3156 13.9366 18.4678C12.3351 19.9216 11.4561 21.9211 11.4235 24.1719C11.4235 24.1719 10.7566 23.6098 10.3944 22.5642C10.2969 22.2826 9.91934 22.2289 9.75558 22.4779C9.72503 22.5243 9.69604 22.5717 9.66866 22.62C8.4331 24.8048 7.8387 27.4579 8.38814 29.9262C9.30687 34.06 15.3842 35.2156 18.6015 32.6175C19.7032 31.7278 20.3864 30.4741 20.5249 29.0873C20.734 26.9869 19.9256 24.4463 18.0863 22.4391Z" fill="#F4D44E"/>
<path d="M16.4404 27.5589C16.243 27.3434 15.9362 27.0526 15.8056 27.7093C15.7612 27.9326 15.6575 28.1047 15.5686 28.2433C15.4728 27.7584 15.1846 27.2565 14.913 26.9182C14.8114 26.7915 14.4507 26.2882 14.3814 25.4463C14.371 25.3206 14.2217 25.2617 14.1284 25.3463C13.2363 26.1563 12.7465 27.2703 12.7283 28.5243C12.7283 28.5243 12.3568 28.2111 12.155 27.6285C12.1006 27.4716 11.8903 27.4417 11.7991 27.5804C11.7816 27.6071 11.7654 27.6338 11.7508 27.6597C11.0624 28.8769 10.7312 30.355 11.0374 31.7302C11.7345 34.8666 17.4486 34.7715 17.7991 31.2627C17.9155 30.0926 17.4651 28.6771 16.4404 27.5589Z" fill="#EAE9E8"/>
<path d="M12.3641 32.3525C12.058 31.1224 12.3891 29.8001 13.0775 28.7113C13.0921 28.6882 13.1084 28.6643 13.1258 28.6405C13.2171 28.5164 13.4274 28.5431 13.4817 28.6834C13.6835 29.2046 14.0551 29.4848 14.0551 29.4848C14.07 28.5631 14.4039 27.7263 15.0172 27.0552C14.88 26.8653 14.4605 26.4074 14.3814 25.4463C14.371 25.3206 14.2217 25.2617 14.1284 25.3463C13.2363 26.1563 12.7465 27.2703 12.7283 28.5243C12.7283 28.5243 12.3568 28.2111 12.155 27.6286C12.1007 27.4717 11.8903 27.4417 11.7991 27.5805C11.7816 27.6071 11.7654 27.6338 11.7508 27.6597C11.0624 28.8769 10.7312 30.355 11.0374 31.7302C11.3207 33.0049 12.4845 33.771 13.7712 33.9558C13.0771 33.615 12.5437 33.0752 12.3641 32.3525Z" fill="#F7E7A1"/>
<path d="M9.25854 4.51861C10.6946 3.35059 10.6914 1.16536 9.25854 0C7.8225 1.16795 7.82562 3.35325 9.25854 4.51861ZM26.4707 13.8931C27.9067 12.725 27.9036 10.5398 26.4707 9.37444C25.8143 9.90821 25.0379 12.7277 26.4707 13.8931ZM1.03658 14.7824C2.07152 13.9406 2.06926 12.3658 1.03658 11.5258C0.563567 11.9105 0.00389543 13.9425 1.03658 14.7824ZM18.9612 7.77524C19.9962 6.93341 19.9939 5.35859 18.9612 4.51861C17.9263 5.36038 17.9286 6.93534 18.9612 7.77524Z" fill="#D8553A"/>
<path d="M11.3378 18.9474C11.5755 16.1416 12.647 13.6468 14.446 11.7448C14.4274 11.6036 14.4122 11.4619 14.4005 11.32C14.3731 10.9867 13.9774 10.8303 13.7298 11.0551C11.8552 12.7568 10.652 14.9652 10.2088 17.4631L10.2082 17.4629C10.1696 17.6844 10.1365 17.9069 10.1088 18.13C10.1088 18.1302 10.1089 18.1304 10.109 18.1306C10.0545 18.5789 10.0239 19.0299 10.0173 19.4815C10.0674 19.4912 11.2008 20.0738 11.3378 18.9474Z" fill="#E89528"/>
<path d="M10.0442 30.5126C9.55583 28.2067 9.9718 25.7476 10.9381 23.617C10.7077 23.2937 10.5246 22.9392 10.3945 22.5641C10.2969 22.2826 9.9194 22.2288 9.75558 22.4778C9.72503 22.5242 9.69604 22.5716 9.66866 22.62C8.4331 24.8047 7.8387 27.4578 8.38814 29.9262C8.81846 31.8621 10.3801 33.1448 12.2495 33.6947C11.1614 32.9723 10.3383 31.9031 10.0442 30.5126ZM13.1867 23.1643C13.3486 22.0072 13.8218 20.7322 14.5668 19.6663C14.4857 19.3654 14.4219 19.0253 14.3907 18.6471C14.3721 18.4216 14.1043 18.3156 13.9367 18.4678C12.9389 19.3737 12.2227 20.4918 11.8158 21.7502L11.8148 21.7499C11.7508 21.9476 11.6602 22.2751 11.6054 22.5336C11.6059 22.5335 11.6063 22.5335 11.6068 22.5333C11.4925 23.0722 11.4312 23.621 11.4238 24.1719C12.3197 24.2837 13.0609 24.0618 13.1867 23.1643Z" fill="#E8C842"/>
</svg>
