<svg width="42" height="42" viewBox="0 0 42 42" fill="none" xmlns="http://www.w3.org/2000/svg">
<path d="M5.36977 15.9608C7.79297 16.8533 10.8281 17.43 14.1094 17.6367C16.7213 12.3457 22.173 8.69531 28.4648 8.69531C30.1383 8.69435 31.8014 8.95678 33.3933 9.47297C32.9011 8.19738 31.5361 6.73723 28.263 5.53547C25.1836 4.3977 21.1214 3.77344 16.8164 3.77344C12.5114 3.77344 8.44922 4.3977 5.36977 5.53137C0.931875 7.16625 0 9.26953 0 10.7461C0 12.2227 0.931875 14.3259 5.36977 15.9608ZM5.36977 26.2147C7.4591 26.9842 10.0037 27.519 12.7698 27.7832C12.2632 25.2067 12.3976 22.5452 13.1611 20.0329C9.94301 19.7695 6.95789 19.1691 4.5191 18.27C2.64223 17.5785 1.12957 16.7344 0 15.7434V21C0 22.4766 0.931875 24.5798 5.36977 26.2147ZM13.4892 30.3122C10.1464 30.0661 7.04074 29.4533 4.5191 28.5239C2.64223 27.8324 1.12957 26.9883 0 25.9973V31.2539C0 32.7305 0.931875 34.8337 5.36977 36.4686C8.44922 37.6023 12.5114 38.2266 16.8164 38.2266C17.8237 38.2266 18.818 38.1921 19.79 38.1248C16.9099 36.2597 14.702 33.522 13.4892 30.3122Z" fill="url(#paint0_linear_27_3097)"/>
<path d="M28.4648 11.1562C21 11.1562 14.9297 17.2266 14.9297 24.6914C14.9297 32.1562 21 38.2266 28.4648 38.2266C35.9297 38.2266 42 32.1562 42 24.6914C42 17.2266 35.9297 11.1562 28.4648 11.1562ZM27.4641 23.4609H29.4656C30.4941 23.4729 31.4781 23.8822 32.2116 24.6032C32.9452 25.3242 33.3714 26.301 33.4011 27.3292C33.4308 28.3573 33.0616 29.3571 32.3709 30.1192C31.6801 30.8813 30.7214 31.3467 29.6953 31.418V32.0742C29.6953 32.4006 29.5657 32.7135 29.3349 32.9443C29.1042 33.175 28.7912 33.3047 28.4648 33.3047C28.1385 33.3047 27.8255 33.175 27.5948 32.9443C27.364 32.7135 27.2344 32.4006 27.2344 32.0742V31.4278H24.7111C24.3848 31.4278 24.0718 31.2982 23.841 31.0674C23.6103 30.8367 23.4806 30.5237 23.4806 30.1973C23.4806 29.871 23.6103 29.558 23.841 29.3273C24.0718 29.0965 24.3848 28.9669 24.7111 28.9669H29.4689C29.8727 28.9669 30.26 28.8065 30.5455 28.5209C30.831 28.2354 30.9914 27.8482 30.9914 27.4444C30.9914 27.0406 30.831 26.6533 30.5455 26.3678C30.26 26.0823 29.8727 25.9219 29.4689 25.9219H27.4641C26.4356 25.9099 25.4516 25.5006 24.718 24.7796C23.9845 24.0586 23.5583 23.0818 23.5286 22.0536C23.4989 21.0255 23.8681 20.0258 24.5588 19.2636C25.2495 18.5015 26.2083 18.0361 27.2344 17.9648V17.3086C27.2344 16.9823 27.364 16.6693 27.5948 16.4385C27.8255 16.2078 28.1385 16.0781 28.4648 16.0781C28.7912 16.0781 29.1042 16.2078 29.3349 16.4385C29.5657 16.6693 29.6953 16.9823 29.6953 17.3086V17.955H32.2186C32.5449 17.955 32.8579 18.0846 33.0887 18.3154C33.3194 18.5462 33.4491 18.8591 33.4491 19.1855C33.4491 19.5118 33.3194 19.8248 33.0887 20.0555C32.8579 20.2863 32.5449 20.4159 32.2186 20.4159H27.4608C27.057 20.4159 26.6697 20.5763 26.3842 20.8619C26.0987 21.1474 25.9383 21.5346 25.9383 21.9384C25.9383 22.3422 26.0987 22.7295 26.3842 23.015C26.6697 23.3005 27.057 23.4609 27.4608 23.4609H27.4641Z" fill="url(#paint1_linear_27_3097)"/>
<defs>
<linearGradient id="paint0_linear_27_3097" x1="2.55768e-07" y1="20.6978" x2="33.3933" y2="20.6978" gradientUnits="userSpaceOnUse">
<stop stop-color="#B72204"/>
<stop offset="1" stop-color="#FC6400"/>
</linearGradient>
<linearGradient id="paint1_linear_27_3097" x1="14.9297" y1="24.4539" x2="42" y2="24.4539" gradientUnits="userSpaceOnUse">
<stop stop-color="#B72204"/>
<stop offset="1" stop-color="#FC6400"/>
</linearGradient>
</defs>
</svg>
