<svg width="251" height="74" viewBox="0 0 251 74" fill="none" xmlns="http://www.w3.org/2000/svg">
<g clip-path="url(#clip0_81_222)">
<path d="M241.699 74.0001H9.30119C4.18832 74.0001 0.00512695 69.8377 0.00512695 64.7503V9.25129C0.00512695 4.16385 4.18832 0.00146484 9.30119 0.00146484H241.699C246.812 0.00146484 250.995 4.16385 250.995 9.25129V64.7503C250.995 69.8377 246.812 74.0001 241.699 74.0001Z" fill="#100F0D"/>
<path d="M241.699 0.00146484H9.30119C4.18832 0.00146484 0.00512695 4.16385 0.00512695 9.25129V64.7503C0.00512695 69.8377 4.18832 74.0001 9.30119 74.0001H241.699C246.812 74.0001 250.995 69.8377 250.995 64.7503V9.25129C250.995 4.16385 246.812 0.00146484 241.699 0.00146484ZM241.699 1.48069C246.005 1.48069 249.508 4.9668 249.508 9.25129V64.7503C249.508 69.0347 246.005 72.5209 241.699 72.5209H9.30119C4.99529 72.5209 1.49328 69.0347 1.49328 64.7503V9.25129C1.49328 4.9668 4.99529 1.48069 9.30119 1.48069H241.699Z" fill="#A2A2A1"/>
<path d="M198.82 55.5003H202.289V32.3719H198.82V55.5003ZM230.068 40.7039L226.091 50.7306H225.972L221.845 40.7039H218.108L224.299 54.7177L220.769 62.5135H224.387L233.926 40.7046L230.068 40.7039ZM210.392 52.8732C209.258 52.8732 207.672 52.3073 207.672 50.909C207.672 49.124 209.647 48.4397 211.35 48.4397C212.875 48.4397 213.594 48.7664 214.52 49.213C214.25 51.3556 212.397 52.8732 210.392 52.8732ZM210.813 40.198C208.301 40.198 205.7 41.2993 204.623 43.7391L207.702 45.0181C208.36 43.7391 209.585 43.3229 210.872 43.3229C212.666 43.3229 214.49 44.3931 214.52 46.298V46.5357C213.891 46.1786 212.545 45.6433 210.902 45.6433C207.581 45.6433 204.203 47.4577 204.203 50.8498C204.203 53.9442 206.925 55.9379 209.974 55.9379C212.306 55.9379 213.594 54.8965 214.399 53.6761H214.52V55.4624H217.87V46.5948C217.87 42.4888 214.788 40.198 210.813 40.198ZM189.372 43.5193H184.437V35.592H189.372C191.965 35.592 193.438 37.7282 193.438 39.5556C193.438 41.3478 191.965 43.5193 189.372 43.5193ZM189.282 32.3725H180.97V55.5008H184.437V46.7389H189.283C193.127 46.7389 196.907 43.9697 196.907 39.5564C196.907 35.144 193.127 32.3725 189.282 32.3725ZM143.953 52.8771C141.556 52.8771 139.551 50.8796 139.551 48.1387C139.551 45.3659 141.556 43.3403 143.953 43.3403C146.319 43.3403 148.176 45.3661 148.176 48.1387C148.176 50.8796 146.319 52.8771 143.953 52.8771ZM147.937 41.9986H147.817C147.038 41.0749 145.54 40.2403 143.654 40.2403C139.699 40.2403 136.075 43.6981 136.075 48.1387C136.075 52.5491 139.699 55.9765 143.654 55.9765C145.54 55.9765 147.038 55.1418 147.817 54.1887H147.937V55.3203C147.937 58.3316 146.319 59.9401 143.713 59.9401C141.588 59.9401 140.27 58.4204 139.73 57.139L136.705 58.3907C137.573 60.4761 139.879 63.0402 143.714 63.0402C147.788 63.0402 151.232 60.6554 151.232 54.8432V40.717H147.937L147.937 41.9986ZM153.629 55.4996H157.102V32.3712H153.629V55.4996ZM162.224 47.87C162.135 44.8298 164.592 43.2804 166.358 43.2804C167.737 43.2804 168.904 43.9661 169.295 44.949L162.224 47.87ZM173.007 45.2467C172.348 43.4893 170.342 40.2403 166.238 40.2403C162.164 40.2403 158.78 43.4292 158.78 48.1085C158.78 52.5195 162.135 55.9766 166.627 55.9766C170.251 55.9766 172.349 53.7719 173.218 52.4898L170.522 50.7013C169.623 52.0129 168.395 52.8772 166.627 52.8772C164.861 52.8772 163.602 52.0723 162.795 50.4926L173.367 46.1415L173.007 45.2467ZM88.7701 42.6546V45.9925H96.7973C96.5576 47.8701 95.9286 49.2408 94.97 50.1947C93.8015 51.3567 91.9743 52.6387 88.77 52.6387C83.8277 52.6387 79.9641 48.675 79.9641 43.7574C79.9641 38.8398 83.8277 34.8755 88.77 34.8755C91.4359 34.8755 93.3824 35.9189 94.8202 37.2601L97.1872 34.9051C95.1797 32.998 92.5144 31.5376 88.77 31.5376C81.9997 31.5376 76.3088 37.0216 76.3088 43.7574C76.3088 50.4925 81.9997 55.9766 88.77 55.9766C92.4237 55.9766 95.1798 54.7843 97.3361 52.5492C99.5527 50.3436 100.242 47.2442 100.242 44.7403C100.242 43.9663 100.181 43.2509 100.062 42.6546H88.7701ZM109.369 52.8771C106.972 52.8771 104.905 50.91 104.905 48.1085C104.905 45.2771 106.972 43.3404 109.369 43.3404C111.765 43.3404 113.832 45.2771 113.832 48.1085C113.832 50.91 111.765 52.8771 109.369 52.8771ZM109.369 40.2403C104.995 40.2403 101.431 43.5484 101.431 48.1085C101.431 52.6387 104.995 55.9766 109.369 55.9766C113.742 55.9766 117.306 52.6387 117.306 48.1085C117.306 43.5484 113.742 40.2403 109.369 40.2403ZM126.684 52.8771C124.289 52.8771 122.221 50.91 122.221 48.1085C122.221 45.2771 124.289 43.3404 126.684 43.3404C129.08 43.3404 131.147 45.2771 131.147 48.1085C131.147 50.91 129.08 52.8771 126.684 52.8771ZM126.684 40.2403C122.311 40.2403 118.747 43.5484 118.747 48.1085C118.747 52.6387 122.311 55.9766 126.684 55.9766C131.058 55.9766 134.622 52.6387 134.622 48.1085C134.622 43.5484 131.058 40.2403 126.684 40.2403Z" fill="white"/>
<path d="M38.5174 35.9351L18.7246 56.8393C18.7254 56.8436 18.7268 56.8472 18.7275 56.8516C19.3346 59.1216 21.4183 60.793 23.8912 60.793C24.8797 60.793 25.8078 60.527 26.6038 60.0602L26.667 60.0234L48.9474 47.2305L38.5174 35.9351Z" fill="#EB3131"/>
<path d="M58.543 32.3762L58.524 32.3633L48.9048 26.8147L38.0676 36.4102L48.9425 47.2295L58.5109 41.7361C60.1884 40.835 61.3272 39.0753 61.3272 37.046C61.3272 35.0314 60.2039 33.2803 58.543 32.3762Z" fill="#F6B60B"/>
<path d="M18.7218 17.1636C18.6028 17.6002 18.5403 18.0575 18.5403 18.5324V55.472C18.5403 55.946 18.6021 56.4049 18.7226 56.8399L39.1986 36.4699L18.7218 17.1636Z" fill="#5778C5"/>
<path d="M38.6637 37.0021L48.9091 26.8107L26.6538 13.9715C25.8449 13.4894 24.9007 13.2112 23.8904 13.2112C21.4175 13.2112 19.331 14.8856 18.7239 17.1582C18.7231 17.1604 18.7231 17.162 18.7231 17.1639L38.6637 37.0021Z" fill="#3BAD49"/>
<path d="M88.119 18.0958H82.6953V19.4313H86.7596C86.6491 20.5211 86.2133 21.3767 85.4784 21.9982C84.7434 22.6197 83.8051 22.9318 82.6954 22.9318C81.4781 22.9318 80.4468 22.5099 79.6016 21.6716C78.7736 20.816 78.3524 19.758 78.3524 18.4833C78.3524 17.2087 78.7736 16.1506 79.6016 15.2951C80.4468 14.4569 81.4781 14.0377 82.6954 14.0377C83.3201 14.0377 83.9156 14.1446 84.4616 14.3788C85.0078 14.6128 85.4464 14.9395 85.7892 15.3587L86.8205 14.3325C86.3527 13.8035 85.7602 13.3989 85.025 13.104C84.2901 12.8091 83.5232 12.6676 82.6952 12.6676C81.0714 12.6676 79.6945 13.2283 78.5702 14.347C77.4459 15.4685 76.8823 16.8502 76.8823 18.4833C76.8823 20.1164 77.4458 21.5012 78.5702 22.6199C79.6944 23.7384 81.0714 24.2993 82.6952 24.2993C84.4005 24.2993 85.7601 23.7558 86.8059 22.6515C87.7267 21.7325 88.1973 20.4895 88.1973 18.9344C88.1973 18.6713 88.1655 18.3907 88.119 18.0958ZM90.2202 12.9159V24.0505H96.7534V22.6832H91.6581V19.1511H96.2539V17.8156H91.6581V14.2862H96.7534V12.9159L90.2202 12.9159ZM105.915 14.2862V12.9159H98.225V14.2862H101.351V24.0505H102.789V14.2862H105.915ZM112.876 12.9159H111.438V24.0505H112.876V12.9159ZM122.368 14.2862V12.9159H114.678V14.2862H117.804V24.0505H119.242V14.2862H122.368ZM136.878 14.3643C135.769 13.2282 134.409 12.6675 132.785 12.6675C131.158 12.6675 129.799 13.2282 128.689 14.3469C127.579 15.4512 127.033 16.8357 127.033 18.4832C127.033 20.1308 127.579 21.5155 128.689 22.6198C129.799 23.7383 131.158 24.2992 132.785 24.2992C134.395 24.2992 135.769 23.7383 136.878 22.6198C137.988 21.5156 138.534 20.1309 138.534 18.4832C138.534 16.8501 137.988 15.4683 136.878 14.3643ZM129.72 15.295C130.548 14.4568 131.565 14.0376 132.785 14.0376C134.002 14.0376 135.019 14.4568 135.833 15.295C136.66 16.1188 137.067 17.1939 137.067 18.4832C137.067 19.7754 136.66 20.8476 135.833 21.6716C135.019 22.5098 134.002 22.9317 132.785 22.9317C131.565 22.9317 130.548 22.5098 129.72 21.6716C128.91 20.8304 128.503 19.7754 128.503 18.4832C128.503 17.194 128.91 16.1361 129.72 15.295ZM141.951 17.1161L141.89 14.9682H141.951L147.639 24.0504H149.14V12.9158H147.703V19.4311L147.763 21.579H147.703L142.264 12.9158H140.513V24.0504H141.951V17.1161Z" fill="white" stroke="white" stroke-width="0.26666" stroke-miterlimit="10"/>
</g>
<defs>
<clipPath id="clip0_81_222">
<rect width="251" height="74" fill="white"/>
</clipPath>
</defs>
</svg>
