<svg width="42" height="42" viewBox="0 0 42 42" fill="none" xmlns="http://www.w3.org/2000/svg">
<path d="M38.1321 26.0093H3.86499C3.43843 26.0093 3.02368 25.9373 2.63452 25.8004V40.7695C2.63452 41.4491 3.18544 42 3.86499 42H38.1321C38.8117 42 39.3626 41.4491 39.3626 40.7695V25.8004C38.9672 25.9392 38.5512 26.0098 38.1321 26.0093ZM3.86499 23.5484H38.1321C38.9128 23.5647 39.5311 22.7728 39.3259 22.0195L36.69 11.4757C36.6234 11.2095 36.4698 10.9732 36.2535 10.8043C36.0372 10.6354 35.7707 10.5437 35.4962 10.5437H32.6853V15.8156C34.3161 15.8761 34.3149 18.2166 32.6853 18.2765H9.22434C7.59347 18.216 7.5947 15.8756 9.22434 15.8156H9.31178V10.5437H6.50098C6.22657 10.5437 5.96003 10.6354 5.74374 10.8043C5.52745 10.9732 5.37382 11.2095 5.30726 11.4757L2.67127 22.0195C2.62597 22.2009 2.62259 22.3903 2.6614 22.5732C2.70022 22.7561 2.78019 22.9277 2.89526 23.0751C3.01033 23.2225 3.15746 23.3417 3.32549 23.4237C3.49352 23.5057 3.67802 23.5483 3.86499 23.5484Z" fill="url(#paint0_linear_27_3140)"/>
<path d="M30.2243 1.23047C30.2243 0.550922 29.6734 0 28.9939 0H13.0032C12.3236 0 11.7727 0.550922 11.7727 1.23047V15.8156H30.2243V1.23047ZM25.8225 6.14193L20.5506 11.4138C20.0701 11.8944 19.291 11.8944 18.8105 11.4138L16.1746 8.77792C15.694 8.29746 15.694 7.51833 16.1746 7.03779C16.6551 6.55733 17.4343 6.55733 17.9147 7.03779L19.6806 8.80359L24.0825 4.4018C24.563 3.92134 25.3422 3.92118 25.8226 4.4018C26.3031 4.88234 26.3031 5.66147 25.8225 6.14193Z" fill="url(#paint1_linear_27_3140)"/>
<defs>
<linearGradient id="paint0_linear_27_3140" x1="2.63452" y1="25.9959" x2="39.3656" y2="25.9959" gradientUnits="userSpaceOnUse">
<stop stop-color="#B72204"/>
<stop offset="1" stop-color="#FC6400"/>
</linearGradient>
<linearGradient id="paint1_linear_27_3140" x1="11.7727" y1="7.76908" x2="30.2243" y2="7.76908" gradientUnits="userSpaceOnUse">
<stop stop-color="#B72204"/>
<stop offset="1" stop-color="#FC6400"/>
</linearGradient>
</defs>
</svg>
