<svg width="32" height="32" viewBox="0 0 32 32" fill="none" xmlns="http://www.w3.org/2000/svg">
<g clip-path="url(#clip0_41_4520)">
<path d="M10 0C4.47713 0 0 4.47713 0 10C0 15.5229 4.47713 20 10 20C10.0876 20.0002 10.1744 19.9831 10.2554 19.9496C10.3364 19.9162 10.41 19.8672 10.472 19.8053L19.8053 10.472C19.8672 10.41 19.9162 10.3364 19.9496 10.2554C19.983 10.1744 20.0001 10.0876 20 10C19.9941 4.47956 15.5204 0.005875 10 0Z" fill="#FFA000"/>
<path d="M20.6668 9.33325C14.4076 9.33325 9.3335 14.4074 9.3335 20.6666C9.3335 26.9258 14.4076 31.9999 20.6668 31.9999C26.9261 31.9999 32.0001 26.9258 32.0001 20.6666C31.9927 14.4104 26.923 9.34063 20.6668 9.33325Z" fill="#FFC107"/>
<path d="M10 29.3333C7.24597 29.1889 4.91853 27.2424 4.28935 24.5573L5.70003 25.2626C6.02953 25.4272 6.4301 25.2935 6.59472 24.9639C6.75928 24.6344 6.6256 24.2339 6.29603 24.0693L3.62935 22.7359C3.61066 22.7266 3.58935 22.7279 3.56935 22.7199C3.48431 22.6875 3.39361 22.6725 3.30266 22.6759C3.28134 22.6748 3.25998 22.6748 3.23866 22.6759C3.21785 22.682 3.19741 22.6891 3.17735 22.6973C3.00658 22.7374 2.85855 22.8433 2.76535 22.9919C2.75466 23.0093 2.73735 23.0213 2.72803 23.0399L1.39472 25.7066C1.2301 26.0359 1.3636 26.4364 1.69291 26.6011L1.69341 26.6013C1.78889 26.6475 1.8941 26.6699 2.0001 26.6666C2.12402 26.6669 2.24557 26.6326 2.35108 26.5676C2.45659 26.5026 2.54189 26.4094 2.59741 26.2986L3.11472 25.2639C3.99703 28.3663 6.77685 30.5476 10 30.6666C10.3682 30.6666 10.6667 30.3681 10.6667 29.9999C10.6667 29.6318 10.3682 29.3333 10 29.3333ZM30.2987 5.40125C29.9694 5.23663 29.569 5.37013 29.4043 5.69944L29.404 5.69994L28.8867 6.73463C28.0038 3.63231 25.2233 1.45156 22 1.33325C21.6318 1.33325 21.3333 1.63175 21.3333 1.99994C21.3333 2.36813 21.6318 2.66663 22 2.66663C24.7528 2.81125 27.0793 4.75638 27.7093 7.43994L26.2987 6.73463C25.9692 6.57006 25.5686 6.70375 25.404 7.03331C25.2394 7.36281 25.3731 7.76338 25.7027 7.928L28.3693 9.26131H28.3973C28.4809 9.30443 28.5728 9.32899 28.6667 9.33331C28.7881 9.33445 28.9074 9.30117 29.0107 9.23731L29.0227 9.22663C29.1107 9.16834 29.1835 9.08968 29.2347 8.99731C29.2427 8.984 29.2573 8.97863 29.264 8.96531L30.5973 6.29863C30.7631 5.96988 30.631 5.569 30.3023 5.40313L30.2987 5.40125Z" fill="#455A64"/>
<path d="M21.3334 20.0466V16.0466C22.8334 16.2373 24.0001 17.0559 24.0001 18.0039C24.0001 18.3721 24.2986 18.6706 24.6667 18.6706C25.0349 18.6706 25.3334 18.3721 25.3334 18.0039C25.3334 16.2973 23.6201 14.9373 21.3334 14.7173V13.9999C21.3334 13.6318 21.0349 13.3333 20.6667 13.3333C20.2986 13.3333 20.0001 13.6318 20.0001 13.9999V14.7133C17.7134 14.9399 16.0001 16.2933 16.0001 17.9999C16.0001 19.7066 17.7134 21.0666 20.0001 21.2866V25.2866C18.5001 25.0959 17.3334 24.2773 17.3334 23.3293C17.3334 22.9611 17.0349 22.6626 16.6667 22.6626C16.2985 22.6626 16 22.9611 16 23.3293C16 25.036 17.7133 26.396 20 26.616V27.3333C20 27.7015 20.2985 28 20.6667 28C21.0349 28 21.3334 27.7015 21.3334 27.3333V26.6199C23.6201 26.3933 25.3334 25.0399 25.3334 23.3333C25.3334 21.6266 23.6201 20.2666 21.3334 20.0466ZM17.3334 17.9999C17.3334 17.0519 18.5001 16.2333 20.0001 16.0426V19.9586C18.5001 19.7666 17.3334 18.9479 17.3334 17.9999ZM21.3334 25.2906V21.3759C22.8334 21.5666 24.0001 22.3853 24.0001 23.3333C24.0001 24.2813 22.8334 25.0999 21.3334 25.2906Z" fill="#FAFAFA"/>
<path d="M9.99994 16C7.38394 16 5.33325 14.5333 5.33325 12.6667V7.33337C5.33325 5.46669 7.38394 4 9.99994 4C12.6159 4 14.6666 5.46669 14.6666 7.33331C14.6666 7.7015 14.3681 8 13.9999 8C13.6318 8 13.3333 7.7015 13.3333 7.33331C13.3333 6.24931 11.8066 5.33331 9.99994 5.33331C8.19331 5.33331 6.66663 6.24931 6.66663 7.33331V12.6666C6.66663 13.7506 8.19331 14.6666 9.99994 14.6666C10.3681 14.6666 10.6666 14.9651 10.6666 15.3333C10.6666 15.7015 10.3681 16 9.99994 16Z" fill="#ECEFF1"/>
<path d="M11.3333 9.33331H4.66669C4.2985 9.33331 4 9.03481 4 8.66663C4 8.29844 4.2985 8 4.66669 8H11.3334C11.7016 8 12.0001 8.2985 12.0001 8.66669C12.0001 9.03488 11.7015 9.33331 11.3333 9.33331ZM11.3333 12H4.66669C4.2985 12 4 11.7015 4 11.3333C4 10.9651 4.2985 10.6666 4.66669 10.6666H11.3334C11.7016 10.6666 12.0001 10.9651 12.0001 11.3333C12 11.7015 11.7015 12 11.3333 12Z" fill="#ECEFF1"/>
</g>
<defs>
<clipPath id="clip0_41_4520">
<rect width="32" height="32" fill="white"/>
</clipPath>
</defs>
</svg>
