<svg width="34" height="34" viewBox="0 0 34 34" fill="none" xmlns="http://www.w3.org/2000/svg">
<path d="M32.1073 12.926C31.8264 12.4528 31.2151 12.2968 30.742 12.5777L19.6962 19.1335L22.6289 13.9233C22.8988 13.4438 22.729 12.8362 22.2494 12.5663C21.77 12.2965 21.1624 12.4662 20.8925 12.9458L17.0029 19.8559L13.1405 12.9483C12.872 12.468 12.265 12.2963 11.7847 12.5649C11.3044 12.8335 11.1327 13.4405 11.4013 13.9208L14.3423 19.1805L3.25324 12.684C2.77853 12.4059 2.16812 12.5653 1.89001 13.0401C1.61184 13.5148 1.77125 14.1252 2.24603 14.4034L16.4965 22.7519C16.8025 22.9343 17.2035 22.9332 17.5085 22.7491L31.759 14.2914C32.2322 14.0105 32.3881 13.3992 32.1073 12.926Z" fill="#F9F9F9"/>
<path d="M32.1074 12.926C31.8265 12.4528 31.2152 12.2968 30.7421 12.5777L19.6962 19.1335L22.6289 13.9233C22.8989 13.4438 22.729 12.8362 22.2494 12.5663C21.77 12.2965 21.1624 12.4662 20.8925 12.9458L17.0029 19.8559L17 19.8507V22.8887C17.178 22.8888 17.3554 22.8396 17.5085 22.749L31.7589 14.2913C32.2323 14.0105 32.3882 13.3992 32.1074 12.926Z" fill="#E2DFF4"/>
<path d="M2.75029 14.5477C2.61938 14.5478 2.48973 14.5221 2.36876 14.4721C2.24778 14.4221 2.13785 14.3487 2.04525 14.2562C1.95265 14.1636 1.87919 14.0538 1.82907 13.9328C1.77896 13.8119 1.75317 13.6823 1.75317 13.5513C1.75317 11.7261 2.16313 9.94918 2.97167 8.26972C3.7482 6.65668 4.85558 5.20696 6.26298 3.96097C9.14799 1.40674 12.9612 0 17 0C25.4071 0 32.2468 6.03019 32.2468 13.4422C32.2468 13.6806 32.1613 13.911 32.0059 14.0918C31.8505 14.2725 31.6355 14.3915 31.3998 14.4272C30.9133 14.5011 30.4449 14.2079 30.2989 13.7375C29.9114 12.4886 28.316 11.5821 26.5056 11.5821C24.6952 11.5821 23.0998 12.4886 22.7123 13.7375C22.6493 13.9406 22.5229 14.1182 22.3517 14.2443C22.1805 14.3704 21.9734 14.4385 21.7607 14.4385C21.5481 14.4385 21.341 14.3704 21.1698 14.2443C20.9986 14.1182 20.8722 13.9406 20.8092 13.7375C20.4217 12.4886 18.8264 11.5822 17.0159 11.5822C15.2053 11.5822 13.61 12.4886 13.2225 13.7375C13.1595 13.9406 13.0332 14.1182 12.862 14.2444C12.6907 14.3705 12.4837 14.4386 12.271 14.4386C12.0584 14.4386 11.8513 14.3705 11.6801 14.2444C11.5088 14.1183 11.3825 13.9407 11.3194 13.7376C10.9319 12.4887 9.33656 11.5823 7.52611 11.5823C5.69275 11.5823 4.05294 12.5399 3.71181 13.8099C3.65489 14.0215 3.52986 14.2084 3.35606 14.3417C3.18226 14.4751 2.96936 14.5475 2.75029 14.5477Z" fill="#FF405C"/>
<path d="M17.0159 0.000244141V11.5823C18.8264 11.5823 20.4217 12.4887 20.8092 13.7376C20.8722 13.9407 20.9986 14.1183 21.1698 14.2444C21.341 14.3705 21.5481 14.4386 21.7607 14.4386C21.9734 14.4386 22.1805 14.3705 22.3517 14.2444C22.5229 14.1183 22.6493 13.9407 22.7123 13.7376C23.0999 12.4887 24.6952 11.5823 26.5056 11.5823C28.3161 11.5823 29.9114 12.4887 30.2989 13.7376C30.4449 14.208 30.9133 14.5012 31.3998 14.4273C31.6355 14.3916 31.8505 14.2726 32.0059 14.0919C32.1614 13.9111 32.2468 13.6807 32.2468 13.4423C32.2469 6.03488 25.4157 0.00781617 17.0159 0.000244141Z" fill="#E20059"/>
<path d="M21.7601 14.4386C21.5475 14.4384 21.3406 14.3702 21.1695 14.2441C20.9985 14.118 20.8722 13.9404 20.8092 13.7374C20.4217 12.4886 18.8264 11.5821 17.0159 11.5821C15.2054 11.5821 13.6101 12.4886 13.2226 13.7374C13.1518 13.9657 13.0013 14.161 12.7985 14.2875C12.5957 14.4141 12.3542 14.4634 12.118 14.4267C11.8818 14.39 11.6667 14.2696 11.5119 14.0875C11.3571 13.9054 11.2729 13.6737 11.2747 13.4347C11.3232 6.92785 13.3498 0.00801524 17.0099 4.46863e-05C17.0159 -8.81563e-05 17.0242 0.000111108 17.0308 0.000177529C20.6845 0.0197718 22.708 6.93536 22.7571 13.4346C22.7581 13.5662 22.733 13.6966 22.6834 13.8184C22.6337 13.9402 22.5604 14.051 22.4678 14.1443C22.3751 14.2377 22.2648 14.3117 22.1433 14.3622C22.0219 14.4127 21.8916 14.4387 21.7601 14.4386Z" fill="#FF8493"/>
<path d="M17.0308 0.000376983C17.0261 0.000244141 17.0209 0.000244141 17.0159 0.000244141V11.5823C18.8264 11.5823 20.4217 12.4887 20.8092 13.7376C20.8801 13.9658 21.0306 14.161 21.2334 14.2875C21.4362 14.414 21.6777 14.4634 21.9138 14.4268C22.15 14.39 22.3651 14.2697 22.5199 14.0875C22.6747 13.9054 22.7589 13.6738 22.7571 13.4347C22.708 6.93562 20.6845 0.0199713 17.0308 0.000376983Z" fill="#FF405C"/>
<path d="M24.7277 34.0001H9.27244C8.72221 34.0001 8.27612 33.554 8.27612 33.0038V21.8923C8.27612 21.3421 8.72221 20.896 9.27244 20.896H24.7277C25.278 20.896 25.7241 21.3421 25.7241 21.8923V33.0037C25.7241 33.554 25.278 34.0001 24.7277 34.0001Z" fill="#C8885E"/>
<path d="M24.7277 20.896H17V34.0001H24.7277C25.2779 34.0001 25.724 33.554 25.724 33.0037V21.8923C25.724 21.3421 25.2779 20.896 24.7277 20.896Z" fill="#9F5F4E"/>
<path d="M18.9817 28.1787C18.7864 28.1787 18.5917 28.1213 18.4238 28.0079L17.0113 27.0535L15.5701 28.012C15.3948 28.1285 15.1872 28.1866 14.977 28.1779C14.7667 28.1692 14.5646 28.0941 14.3996 27.9636C14.1542 27.7703 14.022 27.4664 14.022 27.1539V20.896H19.978V27.1512C19.978 27.5015 19.8097 27.8381 19.5134 28.0249C19.3542 28.1254 19.1699 28.1787 18.9817 28.1787Z" fill="#ECD5AF"/>
<path d="M17 20.896V27.061L17.0114 27.0534L18.4239 28.0079C18.5842 28.1162 18.7726 28.1755 18.9661 28.1785C19.1596 28.1816 19.3497 28.1282 19.5134 28.0249C19.8098 27.8381 19.978 27.5015 19.978 27.1512V20.896H17Z" fill="#E0BA7D"/>
</svg>
