<svg width="32" height="32" viewBox="0 0 32 32" fill="none" xmlns="http://www.w3.org/2000/svg">
<g clip-path="url(#clip0_41_4494)">
<path d="M9.84922 16.6372C9.82897 16.6372 9.80866 16.6365 9.78816 16.6353L0.978159 16.0852C0.813319 16.0749 0.653769 16.0231 0.514443 15.9344C0.375117 15.8457 0.260573 15.7231 0.181534 15.5781C0.102494 15.4331 0.061544 15.2704 0.0625169 15.1052C0.0634899 14.9401 0.106354 14.7779 0.187097 14.6338C0.233222 14.5513 1.3436 12.5935 3.4581 10.886C6.31553 8.57885 9.63728 7.83053 13.064 8.72216C13.2044 8.75872 13.3349 8.82611 13.446 8.91943C13.5571 9.01276 13.646 9.12966 13.7062 9.26165C13.7665 9.39364 13.7965 9.5374 13.7942 9.68247C13.7919 9.82753 13.7574 9.97027 13.693 10.1003L10.724 16.0942C10.6432 16.2572 10.5185 16.3944 10.3639 16.4903C10.2094 16.5862 10.0311 16.6371 9.84922 16.6372Z" fill="#FF5B5B"/>
<path d="M16.9516 32C16.7032 32 16.4642 31.9053 16.2832 31.7352C16.1021 31.5651 15.9927 31.3324 15.9772 31.0845L15.4274 22.2745C15.4155 22.0826 15.4604 21.8914 15.5567 21.7249C15.6529 21.5584 15.7961 21.4241 15.9684 21.3387L21.9624 18.3694C22.0924 18.305 22.2351 18.2705 22.3802 18.2682C22.5253 18.2659 22.669 18.296 22.801 18.3563C22.933 18.4165 23.05 18.5054 23.1433 18.6165C23.2367 18.7276 23.304 18.8581 23.3405 18.9986C24.2324 22.4253 23.4841 25.7471 21.1767 28.6045C19.4694 30.719 17.5114 31.8292 17.4289 31.8755C17.2831 31.9572 17.1187 32.0001 16.9516 32Z" fill="#FF193D"/>
<path d="M30.4964 7.87866L24.1839 1.56616C24.0597 1.44202 23.9044 1.35366 23.7342 1.31038C23.564 1.26711 23.3853 1.27053 23.2169 1.32029C18.9911 2.57029 15.5221 4.53072 12.9057 7.14697C12.36 7.69285 11.8358 8.28441 11.348 8.90497C9.92955 10.7085 8.74474 12.8408 7.82674 15.2429C7.24205 16.7739 6.76599 18.414 6.41174 20.1177C5.79305 23.0935 5.75987 25.2263 5.75862 25.3157C5.75705 25.4459 5.78154 25.5751 5.83065 25.6957C5.87975 25.8163 5.95248 25.9259 6.04455 26.018C6.2277 26.2011 6.47605 26.3039 6.73499 26.3039H6.74693C6.83655 26.303 8.96937 26.2697 11.9449 25.6511C13.6486 25.2968 15.2887 24.8208 16.8199 24.2358C19.2218 23.3178 21.3541 22.1333 23.1571 20.715C23.7782 20.227 24.3697 19.7028 24.9156 19.1569C27.5321 16.5405 29.4925 13.0715 30.7423 8.84566C30.7921 8.67727 30.7956 8.49856 30.7523 8.32837C30.709 8.15818 30.6206 8.00281 30.4964 7.87866Z" fill="#E1F1FA"/>
<path d="M12.612 24.1802L7.88241 19.4507C7.53329 19.1016 6.97835 19.0681 6.58973 19.3728C6.2902 19.6075 6.00503 19.8599 5.73573 20.1287C2.44491 23.4194 2.3431 28.5183 2.34041 28.7337C2.33872 28.864 2.36315 28.9932 2.41226 29.1139C2.46137 29.2346 2.53417 29.3442 2.62635 29.4363C2.71693 29.527 2.82451 29.5989 2.94292 29.648C3.06134 29.6972 3.18828 29.7224 3.31648 29.7224C3.32066 29.7224 3.32479 29.7224 3.32898 29.7222C3.54429 29.7195 8.64341 29.6177 11.934 26.3269C12.2028 26.0576 12.4552 25.7724 12.6898 25.4729C12.9945 25.0842 12.9611 24.5293 12.612 24.1802Z" fill="#FFF261"/>
<path d="M7.90234 15.0476L5.00072 17.9495C4.91001 18.0401 4.83806 18.1477 4.78896 18.2661C4.73987 18.3845 4.7146 18.5114 4.7146 18.6396C4.7146 18.7678 4.73987 18.8948 4.78896 19.0132C4.83806 19.1316 4.91001 19.2392 5.00072 19.3298L12.7329 27.062C12.9157 27.2451 13.164 27.3479 13.4231 27.3479C13.6822 27.3479 13.9302 27.2451 14.1133 27.062L17.0148 24.1604L7.90234 15.0476Z" fill="#1B3B6B"/>
<path d="M20.5689 14.4719C19.7734 14.4719 19.0254 14.1621 18.4629 13.5996C17.3018 12.4385 17.3018 10.5493 18.4629 9.38794C19.0254 8.82544 19.7734 8.51562 20.5689 8.51562C21.3643 8.51562 22.1123 8.82544 22.6748 9.38794C23.2373 9.95044 23.5471 10.6982 23.5471 11.4939C23.5471 12.2893 23.2373 13.0371 22.6748 13.5996C22.1123 14.1621 21.3643 14.4719 20.5689 14.4719Z" fill="#06CCAB"/>
<path d="M20.5688 15.4268C19.5183 15.4268 18.5307 15.0176 17.788 14.2749C16.2546 12.7415 16.2546 10.2463 17.788 8.71291C18.5307 7.97022 19.5185 7.56104 20.5688 7.56104C21.6193 7.56104 22.6069 7.97022 23.3498 8.71291C24.0927 9.45585 24.5017 10.4434 24.5017 11.4939C24.5017 12.5444 24.0927 13.532 23.3498 14.2749C22.6069 15.0176 21.6193 15.4268 20.5688 15.4268ZM20.5688 9.51347C20.04 9.51347 19.5425 9.71954 19.1684 10.0935C18.3965 10.8658 18.3965 12.1221 19.1684 12.8943C19.5425 13.2683 20.04 13.4743 20.5688 13.4743C21.0978 13.4743 21.5952 13.2683 21.9692 12.8943C22.3432 12.5203 22.5493 12.023 22.5493 11.4939C22.5493 10.9648 22.3432 10.4675 21.9692 10.0935C21.5952 9.71954 21.0978 9.51347 20.5688 9.51347Z" fill="#1B3B6B"/>
<path d="M31.7766 0.286055C31.5904 0.0998046 31.3354 -0.00494535 31.0737 0.000179649C30.9289 0.00186715 27.478 0.0599922 23.2168 1.32024L30.7422 8.84562C32.0024 4.58437 32.0605 1.13349 32.0622 0.988742C32.0639 0.85848 32.0395 0.729195 31.9905 0.60851C31.9414 0.487826 31.8687 0.378185 31.7766 0.286055Z" fill="#FF5B5B"/>
<path d="M30.4963 7.87866L27.3401 4.72241L6.04443 26.018C6.13507 26.1087 6.24267 26.1806 6.3611 26.2296C6.47952 26.2787 6.60644 26.3039 6.73462 26.3039H6.74681C6.83618 26.303 8.969 26.2697 11.9448 25.6511C13.6484 25.2969 15.2883 24.8208 16.8196 24.2358C19.2217 23.3179 21.354 22.1333 23.157 20.715C23.7778 20.227 24.3696 19.7028 24.9153 19.1569C27.5317 16.5405 29.4922 13.0715 30.7419 8.84566C30.7918 8.6773 30.7954 8.49858 30.7521 8.32837C30.7089 8.15817 30.6205 8.0028 30.4963 7.87866Z" fill="#CDEBFC"/>
<path d="M12.6119 24.1802L10.247 21.8154L2.62598 29.4362V29.4365C2.80914 29.6195 3.05747 29.7224 3.31641 29.7224H3.3286C3.54416 29.7197 8.64304 29.6177 11.9338 26.3269C12.2026 26.0576 12.4549 25.7724 12.6894 25.4729C12.9944 25.0842 12.9612 24.5293 12.6119 24.1802Z" fill="#FDBF00"/>
<path d="M12.4585 19.604L8.86646 23.1961L12.7327 27.0623C12.9158 27.2453 13.164 27.3481 13.4229 27.3481C13.6817 27.3481 13.93 27.2453 14.1131 27.0623L17.0146 24.1604L12.4585 19.604Z" fill="#001035"/>
<path d="M22.6748 9.38794H22.6746L18.4629 13.5996H18.4631C19.0254 14.1621 19.7735 14.4719 20.5689 14.4719C21.3643 14.4719 22.1123 14.1621 22.6748 13.5996C23.2373 13.0371 23.5471 12.2893 23.5471 11.4939C23.5469 10.6985 23.2373 9.95044 22.6748 9.38794Z" fill="#1CADB5"/>
<path d="M23.3497 8.71289L21.969 10.0935C22.343 10.4675 22.5491 10.9648 22.5491 11.4939C22.5491 12.023 22.343 12.5203 21.969 12.8943C21.595 13.2684 21.0977 13.4743 20.5687 13.4743C20.0396 13.4743 19.5423 13.2683 19.1682 12.8943V12.8941L17.7876 14.2747V14.2749C18.5305 15.0176 19.5181 15.4268 20.5687 15.4268C21.6192 15.4268 22.6067 15.0176 23.3497 14.2749C24.0923 13.532 24.5015 12.5445 24.5015 11.4939C24.5015 10.4433 24.0923 9.45583 23.3497 8.71289Z" fill="#001035"/>
<path d="M31.7764 0.285889L26.9795 5.08301L30.7422 8.8457C32.0024 4.58445 32.0606 1.13358 32.0622 0.988826C32.0639 0.858506 32.0395 0.729166 31.9904 0.608436C31.9413 0.487707 31.8685 0.378034 31.7764 0.285889Z" fill="#FF193D"/>
</g>
<defs>
<clipPath id="clip0_41_4494">
<rect width="32" height="32" fill="white"/>
</clipPath>
</defs>
</svg>
