<svg width="32" height="32" viewBox="0 0 32 32" fill="none" xmlns="http://www.w3.org/2000/svg">
<path d="M16 29C8.83181 29 3 23.1682 3 16C3 8.83181 8.83181 3 16 3C23.1682 3 29 8.83181 29 16C29 23.1682 23.1682 29 16 29ZM16 5C9.93456 5 5 9.93456 5 16C5 22.0654 9.93456 27 16 27C22.0654 27 27 22.0654 27 16C27 9.93456 22.0654 5 16 5Z" fill="#64AFE1"/>
<path d="M24 31H22C18.134 31 15 27.866 15 24C15 20.134 18.134 17 22 17H24C27.866 17 31 20.134 31 24C31 27.866 27.866 31 24 31Z" fill="#A5C3DC"/>
<path d="M22 31C25.866 31 29 27.866 29 24C29 20.134 25.866 17 22 17C18.134 17 15 20.134 15 24C15 27.866 18.134 31 22 31Z" fill="#D7E6F0"/>
<path d="M22 29C24.7614 29 27 26.7614 27 24C27 21.2386 24.7614 19 22 19C19.2386 19 17 21.2386 17 24C17 26.7614 19.2386 29 22 29Z" fill="#A5C3DC"/>
<path d="M23.9287 22.7426L22.4287 20.2426C22.3843 20.1686 22.3214 20.1074 22.2463 20.0649C22.1712 20.0223 22.0863 20 22 20C21.9137 20 21.8288 20.0223 21.7537 20.0649C21.6785 20.1074 21.6157 20.1686 21.5712 20.2426L20.0712 22.7426C20.0051 22.8528 19.984 22.9842 20.0122 23.1096C20.0404 23.2349 20.1158 23.3446 20.2227 23.4159L21.7227 24.4159C21.8048 24.4707 21.9013 24.5 22 24.5C22.0988 24.5 22.1953 24.4707 22.2774 24.4159L23.7774 23.4159C23.8843 23.3446 23.9597 23.2349 23.9878 23.1096C24.016 22.9842 23.9948 22.8528 23.9287 22.7426Z" fill="#4182C3"/>
<path d="M22.1335 20.0182C22.0281 19.989 21.916 19.9951 21.8145 20.0357C21.7129 20.0762 21.6275 20.149 21.5712 20.2428L20.0712 22.7428C20.0051 22.8529 19.984 22.9843 20.0122 23.1097C20.0404 23.235 20.1158 23.3447 20.2227 23.416L21.7227 24.416C21.7979 24.4662 21.8854 24.4951 21.9758 24.4994C22.0662 24.5038 22.1561 24.4836 22.2359 24.4408C22.3157 24.3981 22.3824 24.3346 22.4289 24.2569C22.4754 24.1793 22.5 24.0905 22.5 24V20.5C22.5 20.3907 22.4642 20.2843 22.398 20.1973C22.3318 20.1103 22.2389 20.0474 22.1335 20.0182Z" fill="#64AFE1"/>
<path d="M23.8451 24.6382C23.763 24.5598 23.6566 24.5118 23.5434 24.5019C23.4303 24.4921 23.3172 24.5211 23.2227 24.5841L22.0001 25.3991L20.7774 24.584C20.6829 24.521 20.5698 24.492 20.4567 24.5019C20.3436 24.5117 20.2372 24.5598 20.155 24.6381C20.0728 24.7165 20.0197 24.8205 20.0045 24.933C19.9893 25.0455 20.0128 25.1599 20.0713 25.2572L21.5713 27.7572C21.6157 27.8313 21.6785 27.8925 21.7537 27.935C21.8288 27.9775 21.9137 27.9999 22 27.9999C22.0863 27.9999 22.1712 27.9775 22.2463 27.935C22.3215 27.8925 22.3843 27.8313 22.4288 27.7572L23.9288 25.2572C23.9872 25.1599 24.0107 25.0456 23.9955 24.933C23.9803 24.8205 23.9273 24.7165 23.8451 24.6382Z" fill="#4182C3"/>
<path d="M10 15H8C4.134 15 1 11.866 1 8C1 4.134 4.134 1 8 1H10C13.866 1 17 4.134 17 8C17 11.866 13.866 15 10 15Z" fill="#FAA019"/>
<path d="M8 15C11.866 15 15 11.866 15 8C15 4.13401 11.866 1 8 1C4.13401 1 1 4.13401 1 8C1 11.866 4.13401 15 8 15Z" fill="#FFD205"/>
<path d="M8 13C10.7614 13 13 10.7614 13 8C13 5.23858 10.7614 3 8 3C5.23858 3 3 5.23858 3 8C3 10.7614 5.23858 13 8 13Z" fill="#FAA019"/>
<path d="M16 23C19.866 23 23 19.866 23 16C23 12.134 19.866 9 16 9C12.134 9 9 12.134 9 16C9 19.866 12.134 23 16 23Z" fill="#4182C3"/>
<path d="M10 17C9.44769 17 9 16.5522 9 16C9 12.1402 12.1402 9 16 9C16.5523 9 17 9.44775 17 10C17 10.5523 16.5523 11 16 11C13.243 11 11 13.243 11 16C11 16.5522 10.5523 17 10 17Z" fill="#64AFE1"/>
<path d="M15 19C14.8686 19.0002 14.7386 18.9744 14.6172 18.9241C14.4959 18.8738 14.3857 18.8001 14.2929 18.707L12.2929 16.707C11.9024 16.3165 11.9024 15.6834 12.2929 15.2929C12.6834 14.9023 13.3166 14.9023 13.7071 15.2929L15 16.5858L18.2929 13.2929C18.6834 12.9024 19.3166 12.9024 19.7071 13.2929C20.0977 13.6834 20.0977 14.3166 19.7071 14.7071L15.7071 18.7071C15.6143 18.8001 15.5041 18.8738 15.3828 18.9241C15.2614 18.9744 15.1313 19.0002 15 19Z" fill="#D7E6F0"/>
<path d="M9.97306 8C10.2979 7.68213 10.5 7.23931 10.5 6.75C10.5 5.86994 9.84694 5.13981 9 5.01813V4.5C9 4.36739 8.94732 4.24021 8.85355 4.14645C8.75979 4.05268 8.63261 4 8.5 4C8.36739 4 8.24021 4.05268 8.14645 4.14645C8.05268 4.24021 8 4.36739 8 4.5V5H7.5V4.5C7.5 4.36739 7.44732 4.24021 7.35355 4.14645C7.25979 4.05268 7.13261 4 7 4C6.86739 4 6.74021 4.05268 6.64645 4.14645C6.55268 4.24021 6.5 4.36739 6.5 4.5V5H6C5.86739 5 5.74021 5.05268 5.64645 5.14645C5.55268 5.24021 5.5 5.36739 5.5 5.5C5.5 5.63261 5.55268 5.75979 5.64645 5.85355C5.74021 5.94732 5.86739 6 6 6H6.5V10H6C5.86739 10 5.74021 10.0527 5.64645 10.1464C5.55268 10.2402 5.5 10.3674 5.5 10.5C5.5 10.6326 5.55268 10.7598 5.64645 10.8536C5.74021 10.9473 5.86739 11 6 11H6.5V11.5C6.5 11.6326 6.55268 11.7598 6.64645 11.8536C6.74021 11.9473 6.86739 12 7 12C7.13261 12 7.25979 11.9473 7.35355 11.8536C7.44732 11.7598 7.5 11.6326 7.5 11.5V11H8V11.5C8 11.6326 8.05268 11.7598 8.14645 11.8536C8.24021 11.9473 8.36739 12 8.5 12C8.63261 12 8.75979 11.9473 8.85355 11.8536C8.94732 11.7598 9 11.6326 9 11.5V10.9819C9.84694 10.8602 10.5 10.1301 10.5 9.25C10.5 8.76069 10.2979 8.31787 9.97306 8ZM9.5 6.75C9.5 7.16356 9.16356 7.5 8.75 7.5H7.5V6H8.75C9.16356 6 9.5 6.33644 9.5 6.75ZM8.75 10H7.5V8.5H8.75C9.16356 8.5 9.5 8.83644 9.5 9.25C9.5 9.66356 9.16356 10 8.75 10Z" fill="#FFD205"/>
<path d="M26.8894 8.78751L26.5359 6.31264C26.4824 5.93764 26.2216 5.62514 25.8622 5.50539C25.686 5.44669 25.497 5.43819 25.3163 5.48086C25.1355 5.52352 24.9702 5.61566 24.8389 5.74695L22.7176 7.86826C22.5863 7.99958 22.4941 8.16488 22.4514 8.34563C22.4087 8.52639 22.4172 8.71545 22.476 8.89165C22.5347 9.06784 22.6413 9.2242 22.7839 9.3432C22.9265 9.4622 23.0994 9.53914 23.2833 9.56539L25.7582 9.91895C25.9119 9.94091 26.0685 9.92678 26.2158 9.87769C26.3631 9.82861 26.4969 9.74591 26.6067 9.63614C26.7165 9.52633 26.7992 9.39248 26.8482 9.24519C26.8973 9.0979 26.9114 8.9412 26.8894 8.78751ZM9.5241 23.1084C9.46538 22.9322 9.35876 22.7759 9.21618 22.6569C9.0736 22.5379 8.9007 22.4609 8.71685 22.4346L6.24198 22.0811C6.0883 22.0591 5.93161 22.0732 5.78433 22.1223C5.63706 22.1714 5.50324 22.2541 5.39348 22.3639C5.28368 22.4737 5.20096 22.6075 5.15187 22.7548C5.10278 22.9021 5.08867 23.0588 5.11066 23.2125L5.46416 25.6873C5.49813 25.9256 5.61694 26.1437 5.79878 26.3014C5.98062 26.4592 6.21326 26.546 6.45398 26.5459C6.71504 26.5459 6.9706 26.4436 7.16116 26.253L9.28248 24.1317C9.41382 24.0004 9.50599 23.8351 9.54867 23.6544C9.59135 23.4736 9.58284 23.2846 9.5241 23.1084Z" fill="#4182C3"/>
</svg>
