<svg width="34" height="34" viewBox="0 0 34 34" fill="none" xmlns="http://www.w3.org/2000/svg">
<path d="M21.1754 23.8256C25.4714 22.0479 27.5128 17.1242 25.7351 12.8283C23.9574 8.53228 19.0338 6.49081 14.7378 8.2685C10.4418 10.0462 8.40034 14.9699 10.178 19.2659C11.9557 23.5618 16.8794 25.6033 21.1754 23.8256Z" fill="url(#paint0_linear_31_3394)"/>
<path d="M28.2982 8.01217C29.8945 8.01217 31.1931 6.71354 31.1931 5.11726C31.1931 3.52098 29.8945 2.22235 28.2982 2.22235C26.702 2.22235 25.4033 3.52098 25.4033 5.11726C25.4033 6.71354 26.702 8.01217 28.2982 8.01217ZM9.46934 4.83807C11.9258 2.97668 14.8582 1.99278 17.9493 1.99278C20.1852 1.99278 22.3229 2.5024 24.3029 3.50749L25.2049 1.73053C22.9428 0.582224 20.5016 0 17.9493 0C14.4201 0 11.0716 1.12373 8.26583 3.24976C5.552 5.30617 3.52621 8.22725 2.56177 11.475L4.47218 12.0423C5.31659 9.19847 7.09129 6.64001 9.46934 4.83807ZM31.849 8.02014L30.1244 9.01859C31.3562 11.1463 32.0073 13.578 32.0073 16.0508C32.0073 19.1419 31.0234 22.0743 29.162 24.5308C27.3601 26.9089 24.8016 28.6836 21.9578 29.5281L22.525 31.4384C25.7729 30.474 28.6939 28.4483 30.7504 25.7344C32.8764 22.9286 34.0001 19.5801 34.0001 16.0508C34.0001 13.2279 33.2562 10.4509 31.849 8.02014ZM4.47211 20.0592L2.56177 20.6265C3.3173 23.1708 4.71384 25.513 6.60053 27.3996C8.48716 29.2862 10.8293 30.6828 13.3737 31.4383L13.9409 29.528C11.7135 28.8665 9.6625 27.6433 8.00963 25.9904C6.35682 24.3375 5.13352 22.2866 4.47211 20.0592ZM17.9493 28.2102C16.3531 28.2102 15.0545 29.5088 15.0545 31.1051C15.0545 32.7013 16.3531 34 17.9493 34C19.5456 34 20.8443 32.7014 20.8443 31.1051C20.8443 29.5088 19.5456 28.2102 17.9493 28.2102Z" fill="url(#paint1_linear_31_3394)"/>
<path d="M2.89491 18.9456C4.49373 18.9456 5.78982 17.6495 5.78982 16.0507C5.78982 14.4519 4.49373 13.1558 2.89491 13.1558C1.2961 13.1558 0 14.4519 0 16.0507C0 17.6495 1.2961 18.9456 2.89491 18.9456Z" fill="url(#paint2_linear_31_3394)"/>
<defs>
<linearGradient id="paint0_linear_31_3394" x1="10.1216" y1="19.1294" x2="25.6787" y2="12.6918" gradientUnits="userSpaceOnUse">
<stop stop-color="#B72204"/>
<stop offset="1" stop-color="#FC6400"/>
</linearGradient>
<linearGradient id="paint1_linear_31_3394" x1="2.56177" y1="16.7018" x2="34.0001" y2="16.7018" gradientUnits="userSpaceOnUse">
<stop stop-color="#B72204"/>
<stop offset="1" stop-color="#FC6400"/>
</linearGradient>
<linearGradient id="paint2_linear_31_3394" x1="4.43458e-08" y1="15.9999" x2="5.78982" y2="15.9999" gradientUnits="userSpaceOnUse">
<stop stop-color="#B72204"/>
<stop offset="1" stop-color="#FC6400"/>
</linearGradient>
</defs>
</svg>
