<svg width="42" height="42" viewBox="0 0 42 42" fill="none" xmlns="http://www.w3.org/2000/svg">
<path fill-rule="evenodd" clip-rule="evenodd" d="M21 28C24.2489 28 27.3647 26.7094 29.6621 24.4121C31.9594 22.1147 33.25 18.9989 33.25 15.75C33.25 12.5011 31.9594 9.38526 29.6621 7.08794C27.3647 4.79062 24.2489 3.5 21 3.5C17.7511 3.5 14.6353 4.79062 12.3379 7.08794C10.0406 9.38526 8.75 12.5011 8.75 15.75C8.75 18.9989 10.0406 22.1147 12.3379 24.4121C14.6353 26.7094 17.7511 28 21 28ZM21 10.5C20.503 10.5 20.1705 11.095 19.5055 12.2902L19.334 12.5983C19.145 12.9378 19.0505 13.1058 18.9017 13.2178C18.7548 13.3298 18.571 13.3718 18.2053 13.454L17.871 13.531C16.5795 13.8233 15.9338 13.9685 15.7798 14.462C15.6258 14.9555 16.0668 15.4718 16.947 16.5008L17.1745 16.7668C17.4248 17.059 17.5508 17.2043 17.6068 17.3863C17.6628 17.5683 17.6435 17.7625 17.6068 18.1528L17.5718 18.508C17.4388 19.8818 17.3722 20.5695 17.7747 20.874C18.1772 21.1785 18.781 20.9003 19.9903 20.3438L20.3018 20.2003C20.6465 20.0428 20.818 19.9622 21 19.9622C21.182 19.9622 21.3535 20.0428 21.6983 20.2003L22.0098 20.3438C23.219 20.9003 23.8245 21.1785 24.2253 20.874C24.6278 20.5695 24.5613 19.8818 24.4283 18.508L24.3933 18.1528C24.3565 17.7625 24.3373 17.5683 24.3933 17.3863C24.4493 17.206 24.5753 17.059 24.8255 16.7668L25.053 16.5008C25.9333 15.4718 26.3743 14.9573 26.2203 14.462C26.0663 13.9668 25.4205 13.8233 24.129 13.531L23.7965 13.454C23.429 13.3718 23.2453 13.3315 23.0965 13.2178C22.9495 13.1058 22.855 12.9378 22.666 12.5983L22.4945 12.2902C21.8295 11.095 21.497 10.5 21 10.5Z" fill="url(#paint0_linear_27_3151)"/>
<path d="M12.4127 27.8967L11.7495 30.3152C10.6505 34.3262 10.101 36.3317 10.8342 37.429C11.0915 37.814 11.4362 38.122 11.837 38.3267C12.978 38.9077 14.742 37.989 18.2682 36.1515C19.4407 35.539 20.0287 35.2345 20.6517 35.168C20.8832 35.1432 21.1167 35.1432 21.3482 35.168C21.9712 35.2345 22.5575 35.5407 23.7317 36.1515C27.258 37.989 29.022 38.9077 30.163 38.3267C30.5637 38.122 30.9085 37.814 31.1657 37.429C31.9007 36.3317 31.3495 34.3262 30.2505 30.3152L29.5872 27.8967C27.1617 29.6152 24.1972 30.625 21 30.625C17.8027 30.625 14.84 29.6152 12.4127 27.8967Z" fill="url(#paint1_linear_27_3151)"/>
<defs>
<linearGradient id="paint0_linear_27_3151" x1="8.75" y1="15.5351" x2="33.25" y2="15.5351" gradientUnits="userSpaceOnUse">
<stop stop-color="#B72204"/>
<stop offset="1" stop-color="#FC6400"/>
</linearGradient>
<linearGradient id="paint1_linear_27_3151" x1="10.5002" y1="33.1054" x2="31.5005" y2="33.1054" gradientUnits="userSpaceOnUse">
<stop stop-color="#B72204"/>
<stop offset="1" stop-color="#FC6400"/>
</linearGradient>
</defs>
</svg>
