<svg width="42" height="42" viewBox="0 0 42 42" fill="none" xmlns="http://www.w3.org/2000/svg">
<path d="M40.2499 21C40.2501 20.6748 40.1596 20.356 39.9887 20.0793C39.8177 19.8027 39.5731 19.5791 39.2822 19.4338L33.6629 16.625L39.2822 13.825C39.5734 13.6799 39.8184 13.4564 39.9896 13.1797C40.1609 12.9031 40.2516 12.5841 40.2516 12.2588C40.2516 11.9334 40.1609 11.6144 39.9896 11.3378C39.8184 11.0611 39.5734 10.8376 39.2822 10.6925L21.7822 1.9425C21.5393 1.82112 21.2715 1.75793 20.9999 1.75793C20.7284 1.75793 20.4606 1.82112 20.2177 1.9425L2.71768 10.6925C2.42646 10.8376 2.18148 11.0611 2.01024 11.3378C1.839 11.6144 1.74829 11.9334 1.74829 12.2588C1.74829 12.5841 1.839 12.9031 2.01024 13.1797C2.18148 13.4564 2.42646 13.6799 2.71768 13.825L8.33693 16.625L2.71768 19.4338C2.42646 19.5789 2.18148 19.8023 2.01024 20.079C1.839 20.3557 1.74829 20.6746 1.74829 21C1.74829 21.3254 1.839 21.6443 2.01024 21.921C2.18148 22.1977 2.42646 22.4211 2.71768 22.5663L8.33693 25.375L2.71768 28.1838C2.42646 28.3289 2.18148 28.5523 2.01024 28.829C1.839 29.1057 1.74829 29.4246 1.74829 29.75C1.74829 30.0754 1.839 30.3943 2.01024 30.671C2.18148 30.9477 2.42646 31.1711 2.71768 31.3163L20.2177 40.0663C20.4606 40.1876 20.7284 40.2508 20.9999 40.2508C21.2715 40.2508 21.5393 40.1876 21.7822 40.0663L39.2822 31.3163C39.5734 31.1711 39.8184 30.9477 39.9896 30.671C40.1609 30.3943 40.2516 30.0754 40.2516 29.75C40.2516 29.4246 40.1609 29.1057 39.9896 28.829C39.8184 28.5523 39.5734 28.3289 39.2822 28.1838L33.6629 25.375L39.2822 22.575C39.5744 22.429 39.82 22.2041 39.991 21.9257C40.162 21.6474 40.2517 21.3267 40.2499 21ZM34.5869 29.75L20.9999 36.5435L7.41293 29.75L12.2499 27.3315L20.2177 31.325C20.4606 31.4464 20.7284 31.5096 20.9999 31.5096C21.2715 31.5096 21.5393 31.4464 21.7822 31.325L29.7499 27.3315L34.5869 29.75ZM20.9999 27.7935L7.41293 21L12.2499 18.5815L20.2177 22.575C20.4606 22.6964 20.7284 22.7596 20.9999 22.7596C21.2715 22.7596 21.5393 22.6964 21.7822 22.575L29.7499 18.5815L34.5869 21L20.9999 27.7935Z" fill="url(#paint0_linear_27_3115)"/>
<defs>
<linearGradient id="paint0_linear_27_3115" x1="1.74829" y1="20.6667" x2="40.2516" y2="20.6667" gradientUnits="userSpaceOnUse">
<stop stop-color="#B72204"/>
<stop offset="1" stop-color="#FC6400"/>
</linearGradient>
</defs>
</svg>
