<svg width="40" height="42" viewBox="0 0 40 42" fill="none" xmlns="http://www.w3.org/2000/svg">
<path fill-rule="evenodd" clip-rule="evenodd" d="M35.6324 1.27048C35.6316 0.466363 34.885 -0.146118 34.0886 0.0305639L4.49365 6.62449H35.636L35.6324 1.27048ZM29.0932 21.9781L20.523 18.1125C20.3587 18.0382 20.1804 17.9998 20.0001 17.9998C19.8198 17.9998 19.6416 18.0382 19.4773 18.1125L10.9785 21.9447C10.4973 22.127 10.1551 22.592 10.1551 23.1371V30.0648C10.1551 32.8052 10.9536 35.4985 13.2245 37.2104L19.2185 41.7289C19.6618 42.077 20.3001 42.0986 20.7711 41.7431L26.7787 37.21C29.0479 35.4978 29.8452 32.806 29.8452 30.0672L29.8434 23.1385C29.843 22.6534 29.5641 22.1902 29.0932 21.9781ZM25.6502 27.3958L20.4803 32.5655C20.3621 32.6841 20.2216 32.7781 20.0669 32.8422C19.9122 32.9062 19.7464 32.9391 19.579 32.9389C19.4115 32.9392 19.2457 32.9063 19.091 32.8422C18.9363 32.7781 18.7958 32.6841 18.6776 32.5655L16.2035 30.0914C15.7056 29.5936 15.7056 28.7864 16.2035 28.2886C16.7012 27.7908 17.5084 27.7908 18.0062 28.2886L19.579 29.8614L23.8476 25.593C24.3454 25.0952 25.1526 25.0951 25.6503 25.593C26.148 26.0908 26.1479 26.898 25.6502 27.3958ZM36.9634 23.4433C36.9634 25.1192 38.1983 26.5246 39.8015 26.7949V20.0916C38.1983 20.3619 36.9634 21.7674 36.9634 23.4433Z" fill="url(#paint0_linear_38_3935)"/>
<path fill-rule="evenodd" clip-rule="evenodd" d="M38.5266 9.17383H1.47349C0.769485 9.17383 0.19873 9.74458 0.19873 10.4486V36.4377C0.19873 37.1417 0.769485 37.7125 1.47349 37.7125H10.0833C9.46108 36.9644 8.97132 36.1416 8.59603 35.2679C7.8927 33.6304 7.60554 31.8425 7.60554 30.0646V23.1369C7.60554 22.3409 7.85785 21.5935 8.28864 20.9696C8.69911 20.3754 9.26908 19.9091 9.93292 19.6245L18.4316 15.7918C18.9464 15.5599 19.4794 15.4501 19.9993 15.4501C20.5376 15.4501 21.0728 15.5687 21.5687 15.7918L30.1389 19.6574C30.8232 19.9656 31.3778 20.4651 31.7698 21.0717C32.1667 21.6857 32.3825 22.4044 32.3829 23.1381L32.3947 30.0669C32.3947 31.8379 32.1079 33.6211 31.405 35.2581C31.0278 36.1366 30.5373 36.9628 29.9156 37.7124H38.5267C39.2307 37.7124 39.8015 37.1416 39.8015 36.4376V29.3646C36.7882 29.0797 34.4139 26.5282 34.4139 23.443C34.4139 20.3578 36.7882 17.8064 39.8015 17.5215V10.4486C39.8014 9.7445 39.2307 9.17383 38.5266 9.17383Z" fill="url(#paint1_linear_38_3935)"/>
<defs>
<linearGradient id="paint0_linear_38_3935" x1="4.49365" y1="20.6316" x2="39.8015" y2="20.6316" gradientUnits="userSpaceOnUse">
<stop stop-color="#B72204"/>
<stop offset="1" stop-color="#FC6400"/>
</linearGradient>
<linearGradient id="paint1_linear_38_3935" x1="0.198731" y1="23.1928" x2="39.8015" y2="23.1928" gradientUnits="userSpaceOnUse">
<stop stop-color="#B72204"/>
<stop offset="1" stop-color="#FC6400"/>
</linearGradient>
</defs>
</svg>
