<svg width="181" height="41" viewBox="0 0 181 41" fill="none" xmlns="http://www.w3.org/2000/svg">
<path d="M12.5 0L0 21L12.5 28.5L25 21L12.5 0ZM0 23.5L12.5 41L25 23.5L12.5 31L0 23.5Z" fill="white"/>
<path fill-rule="evenodd" clip-rule="evenodd" d="M66.5527 7.69459C66.5005 7.83067 66.4799 13.5933 66.5065 20.5005L66.5551 33.059H67.0242H67.4932L67.587 28.5604C67.678 24.2006 67.6958 24.03 68.1688 23.0309C69.0823 21.1016 70.4031 20.2306 72.4256 20.2235C73.8261 20.2186 74.8376 20.6613 75.546 21.5893C76.4889 22.8246 76.5925 23.4757 76.5925 28.1733C76.5925 32.7639 76.6805 33.2719 77.4492 33.1234C77.797 33.0562 77.812 32.8475 77.812 28.089C77.812 23.2609 77.7998 23.0975 77.3651 22.1368C76.8212 20.9342 75.2569 19.4471 74.2046 19.1322C72.1419 18.5148 70.0564 19.0769 68.5251 20.663L67.6808 21.5374L67.587 14.5523L67.4932 7.56713L67.0703 7.50715C66.8377 7.47416 66.6047 7.55851 66.5527 7.69459ZM54.587 14.1508C54.5138 14.2239 54.454 15.3661 54.454 16.6893V19.0947H52.772C51.3529 19.0947 51.0623 19.1466 50.9118 19.4276C50.7987 19.6386 50.7996 19.8786 50.9145 20.0836C51.0649 20.352 51.3801 20.4068 52.7748 20.4068H54.454V26.6631C54.454 33.2279 54.4917 33.5296 55.2744 33.2295C55.548 33.1248 55.5797 32.4543 55.5797 26.7664V20.4203L57.4089 20.3667L59.2382 20.313V19.7507V19.1884L57.4144 19.1348L55.5906 19.0812L55.5382 16.6044C55.4889 14.2737 55.4634 14.1243 55.103 14.0728C54.8923 14.0426 54.6602 14.0779 54.587 14.1508ZM36.6713 18.9331C34.8667 19.2248 33.2459 20.346 32.1564 22.0568C30.8022 24.1827 30.6174 27.2223 31.7078 29.4348C32.4309 30.9025 33.7509 32.2509 35.1235 32.9244C36.0201 33.3645 36.3916 33.4337 37.8501 33.4329C39.3535 33.4322 39.6756 33.3673 40.788 32.8415C42.0377 32.2509 43.4525 31.0136 43.6735 30.3178C43.8011 29.9163 43.4812 29.4039 43.1029 29.4039C42.9733 29.4039 42.5605 29.7776 42.1857 30.2346C41.7741 30.7366 41.0784 31.2744 40.4277 31.5936C39.5193 32.0393 39.1165 32.1218 37.8501 32.1218C36.5385 32.1218 36.2229 32.0519 35.3486 31.5681C34.7984 31.2635 34.1395 30.7666 33.8843 30.4635C33.2562 29.7179 32.562 28.3154 32.4038 27.4723L32.2736 26.7797H38.2889C43.5506 26.7797 44.3247 26.743 44.4684 26.4866C44.7174 26.0422 44.3774 24.0272 43.8648 22.9085C43.2956 21.6664 41.9774 20.2437 40.8095 19.6113C40.0186 19.1828 39.5929 19.0628 38.0377 18.8293C37.8313 18.7983 37.2165 18.845 36.6713 18.9331ZM91.1308 18.917C88.3528 19.2889 85.8558 21.9704 85.456 25.0112C85.0205 28.3242 86.6038 31.4972 89.3604 32.8355C91.2186 33.7375 93.5746 33.6755 95.5618 32.6725C96.3511 32.2742 98.1682 30.5133 98.1682 30.1467C98.1682 29.957 97.6284 29.4039 97.4431 29.4039C97.3686 29.4039 96.9008 29.8346 96.4035 30.361C95.1497 31.6882 94.1423 32.1154 92.2583 32.119C91.0251 32.1212 90.5942 32.0385 89.842 31.6549C88.6948 31.0693 87.5843 29.7955 87.0978 28.5064C86.3899 26.6313 85.8751 26.7919 92.7743 26.7355L98.8248 26.686L98.8828 25.8819C98.9588 24.8315 98.4689 23.1625 97.7562 22.0439C96.2795 19.7256 93.8069 18.5586 91.1308 18.917ZM124.663 18.9331C122.166 19.3367 120.044 21.347 119.268 24.0448C118.817 25.6129 118.963 27.8262 119.612 29.2639C120.25 30.676 121.77 32.2661 123.1 32.9107C124.003 33.3487 124.393 33.422 125.841 33.4265C127.352 33.4314 127.662 33.3697 128.779 32.8415C130.029 32.2509 131.444 31.0136 131.665 30.3178C131.792 29.9163 131.472 29.4039 131.094 29.4039C130.965 29.4039 130.552 29.7776 130.177 30.2346C129.765 30.7366 129.07 31.2744 128.419 31.5936C127.511 32.0393 127.108 32.1218 125.841 32.1218C124.53 32.1218 124.214 32.0519 123.342 31.569C122.16 30.9148 121.355 29.9608 120.754 28.5001C119.981 26.6219 119.471 26.7797 126.304 26.7797C133.17 26.7797 132.752 26.8963 132.497 25.0534C132.192 22.8517 130.683 20.6309 128.801 19.6113C128.01 19.1828 127.584 19.0628 126.029 18.8293C125.823 18.7983 125.208 18.845 124.663 18.9331ZM163.832 19.0823C162.952 19.3498 162.24 19.8055 161.441 20.6124L160.644 21.418V20.5732C160.644 19.5957 160.306 19.024 159.787 19.1237C159.437 19.191 159.423 19.4415 159.375 26.0843C159.33 32.3401 159.354 32.9862 159.635 33.0938C159.805 33.1591 160.081 33.1266 160.247 33.0219C160.508 32.858 160.564 32.1919 160.651 28.2592C160.762 23.1933 160.821 22.9166 162.067 21.5382C162.975 20.534 164.036 20.1567 165.689 20.2501C166.804 20.313 167.109 20.4092 167.716 20.8891C168.117 21.2064 168.677 21.9434 168.993 22.5704L169.556 23.687L169.649 28.3707C169.738 32.813 169.762 33.058 170.106 33.124C170.855 33.2676 170.963 32.7294 170.963 28.8254C170.963 24.6347 171.216 23.343 172.331 21.8673C173.916 19.7678 177.233 19.6238 178.734 21.5893C179.681 22.8294 179.781 23.4671 179.781 28.2798C179.781 32.9887 179.833 33.2786 180.663 33.1184C180.977 33.0577 181 32.7182 181 28.089V23.1246L180.51 22.0937C179.951 20.9192 178.934 19.8356 177.933 19.3492C176.867 18.8315 174.769 18.7828 173.71 19.251C172.51 19.7813 171.716 20.4319 171.056 21.4251C170.747 21.8915 170.451 22.2748 170.399 22.277C170.348 22.2793 170.102 21.8979 169.853 21.4293C169.323 20.4315 168.315 19.5777 167.204 19.1862C166.373 18.8934 164.631 18.8398 163.832 19.0823ZM106.701 19.3168C106.649 19.4533 106.628 22.6011 106.655 26.3121L106.705 33.059H107.174H107.643L107.764 29.2164C107.895 25.0302 108.08 24.0675 109.024 22.6634C109.661 21.7166 110.863 20.8592 111.94 20.5843C112.363 20.4765 112.816 20.3522 112.947 20.308C113.321 20.1824 113.432 19.6821 113.159 19.3534C112.539 18.6079 109.979 19.6428 108.57 21.2077L107.753 22.1162L107.698 20.6523C107.647 19.2954 107.612 19.1841 107.22 19.1284C106.987 19.0954 106.754 19.1802 106.701 19.3168ZM140.082 19.5419C140.027 19.6848 140.009 21.9412 140.041 24.5559C140.097 29.0972 140.12 29.3544 140.547 30.298C141.127 31.5799 142.674 33.0106 143.83 33.3339C144.914 33.637 146.641 33.5126 147.576 33.0637C148.352 32.6918 149.271 31.879 149.866 31.0384L150.235 30.5173L150.167 31.3707C150.081 32.4507 150.237 33.0788 150.629 33.229C151.419 33.5319 151.451 33.2586 151.451 26.1885C151.451 20.1301 151.42 19.4461 151.144 19.34C150.975 19.2754 150.701 19.3082 150.534 19.4128C150.276 19.5753 150.215 20.2193 150.122 23.8006C150.003 28.397 149.836 29.291 148.843 30.6605C147.375 32.6847 143.847 32.7855 142.366 30.8455C141.42 29.6061 141.32 28.9666 141.32 24.1694C141.32 20.968 141.257 19.6694 141.094 19.5071C140.79 19.2025 140.205 19.2225 140.082 19.5419ZM39.9424 20.6116C41.0596 21.1468 42.3187 22.5738 42.7945 23.844C43.4566 25.6122 43.905 25.4676 37.7563 25.4676C31.611 25.4676 32.0568 25.6101 32.7134 23.857C33.1224 22.7644 34.0044 21.6362 35.0064 20.9234C36.3096 19.9963 38.3839 19.8653 39.9424 20.6116ZM94.3356 20.6203C95.793 21.3046 97.1395 23.1037 97.5074 24.8585L97.6352 25.4676H92.1585H86.6819L86.8122 24.7736C87.0738 23.3809 88.0747 21.8161 89.2043 21.0339C90.7039 19.9957 92.6684 19.8373 94.3356 20.6203ZM127.924 20.607C129.414 21.3207 130.79 23.1265 131.1 24.7751L131.23 25.4676H125.754H120.277L120.405 24.8585C121.178 21.1704 124.811 19.1162 127.924 20.607Z" fill="white"/>
</svg>
